%TF.GenerationSoftware,KiCad,Pcbnew,(6.0.5)*%
%TF.CreationDate,2022-05-26T22:58:09+02:00*%
%TF.ProjectId,STP220_Polulu,53545032-3230-45f5-906f-6c756c752e6b,rev?*%
%TF.SameCoordinates,Original*%
%TF.FileFunction,Soldermask,Bot*%
%TF.FilePolarity,Negative*%
%FSLAX46Y46*%
G04 Gerber Fmt 4.6, Leading zero omitted, Abs format (unit mm)*
G04 Created by KiCad (PCBNEW (6.0.5)) date 2022-05-26 22:58:09*
%MOMM*%
%LPD*%
G01*
G04 APERTURE LIST*
G04 Aperture macros list*
%AMRoundRect*
0 Rectangle with rounded corners*
0 $1 Rounding radius*
0 $2 $3 $4 $5 $6 $7 $8 $9 X,Y pos of 4 corners*
0 Add a 4 corners polygon primitive as box body*
4,1,4,$2,$3,$4,$5,$6,$7,$8,$9,$2,$3,0*
0 Add four circle primitives for the rounded corners*
1,1,$1+$1,$2,$3*
1,1,$1+$1,$4,$5*
1,1,$1+$1,$6,$7*
1,1,$1+$1,$8,$9*
0 Add four rect primitives between the rounded corners*
20,1,$1+$1,$2,$3,$4,$5,0*
20,1,$1+$1,$4,$5,$6,$7,0*
20,1,$1+$1,$6,$7,$8,$9,0*
20,1,$1+$1,$8,$9,$2,$3,0*%
G04 Aperture macros list end*
%ADD10R,1.700000X1.700000*%
%ADD11O,1.700000X1.700000*%
%ADD12RoundRect,0.200000X0.200000X0.275000X-0.200000X0.275000X-0.200000X-0.275000X0.200000X-0.275000X0*%
%ADD13RoundRect,0.200000X-0.200000X-0.275000X0.200000X-0.275000X0.200000X0.275000X-0.200000X0.275000X0*%
%ADD14RoundRect,0.200000X0.275000X-0.200000X0.275000X0.200000X-0.275000X0.200000X-0.275000X-0.200000X0*%
%ADD15RoundRect,0.062500X0.062500X-0.325000X0.062500X0.325000X-0.062500X0.325000X-0.062500X-0.325000X0*%
%ADD16RoundRect,0.062500X0.325000X-0.062500X0.325000X0.062500X-0.325000X0.062500X-0.325000X-0.062500X0*%
%ADD17R,1.800000X1.800000*%
%ADD18RoundRect,0.150000X-0.150000X0.587500X-0.150000X-0.587500X0.150000X-0.587500X0.150000X0.587500X0*%
%ADD19R,1.200000X1.200000*%
%ADD20R,1.500000X1.600000*%
%ADD21R,0.450000X0.700000*%
%ADD22RoundRect,0.225000X0.225000X0.250000X-0.225000X0.250000X-0.225000X-0.250000X0.225000X-0.250000X0*%
%ADD23RoundRect,0.200000X-0.275000X0.200000X-0.275000X-0.200000X0.275000X-0.200000X0.275000X0.200000X0*%
%ADD24RoundRect,0.225000X-0.250000X0.225000X-0.250000X-0.225000X0.250000X-0.225000X0.250000X0.225000X0*%
G04 APERTURE END LIST*
D10*
%TO.C,J2*%
X135890000Y-95235000D03*
D11*
X135890000Y-92695000D03*
X135890000Y-90155000D03*
X135890000Y-87615000D03*
X135890000Y-85075000D03*
X135890000Y-82535000D03*
X135890000Y-79995000D03*
X135890000Y-77455000D03*
%TD*%
D10*
%TO.C,J1*%
X148590000Y-95250000D03*
D11*
X148590000Y-92710000D03*
X148590000Y-90170000D03*
X148590000Y-87630000D03*
X148590000Y-85090000D03*
X148590000Y-82550000D03*
X148590000Y-80010000D03*
X148590000Y-77470000D03*
%TD*%
D12*
%TO.C,R7*%
X140271000Y-89281000D03*
X138621000Y-89281000D03*
%TD*%
%TO.C,R4*%
X140271000Y-81661000D03*
X138621000Y-81661000D03*
%TD*%
%TO.C,R6*%
X140271000Y-83439000D03*
X138621000Y-83439000D03*
%TD*%
D13*
%TO.C,R10*%
X144717000Y-83464400D03*
X146367000Y-83464400D03*
%TD*%
D14*
%TO.C,R3*%
X145923000Y-90804000D03*
X145923000Y-89154000D03*
%TD*%
D13*
%TO.C,R1*%
X144717000Y-80518000D03*
X146367000Y-80518000D03*
%TD*%
D15*
%TO.C,U1*%
X142990000Y-87847500D03*
X142490000Y-87847500D03*
X141990000Y-87847500D03*
X141490000Y-87847500D03*
D16*
X140752500Y-87110000D03*
X140752500Y-86610000D03*
X140752500Y-86110000D03*
X140752500Y-85610000D03*
D15*
X141490000Y-84872500D03*
X141990000Y-84872500D03*
X142490000Y-84872500D03*
X142990000Y-84872500D03*
D16*
X143727500Y-85610000D03*
X143727500Y-86110000D03*
X143727500Y-86610000D03*
X143727500Y-87110000D03*
D17*
X142240000Y-86360000D03*
%TD*%
D12*
%TO.C,R8*%
X146367000Y-81991200D03*
X144717000Y-81991200D03*
%TD*%
D18*
%TO.C,Q1*%
X143957000Y-76913500D03*
X145857000Y-76913500D03*
X144907000Y-78788500D03*
%TD*%
D19*
%TO.C,RV1*%
X138662000Y-78978000D03*
D20*
X141912000Y-77978000D03*
D19*
X138662000Y-76978000D03*
%TD*%
D21*
%TO.C,Q2*%
X144257000Y-76851000D03*
X145557000Y-76851000D03*
X144907000Y-78851000D03*
%TD*%
D22*
%TO.C,C1*%
X143269000Y-82169000D03*
X141719000Y-82169000D03*
%TD*%
D13*
%TO.C,R5*%
X141669000Y-80645000D03*
X143319000Y-80645000D03*
%TD*%
D23*
%TO.C,R2*%
X144399000Y-89154000D03*
X144399000Y-90804000D03*
%TD*%
D24*
%TO.C,C2*%
X138811000Y-85585000D03*
X138811000Y-87135000D03*
%TD*%
D23*
%TO.C,R9*%
X145923000Y-86170000D03*
X145923000Y-87820000D03*
%TD*%
M02*
