M48
; DRILL file {KiCad (6.0.5)} date Thu May 26 22:58:10 2022
; FORMAT={-:-/ absolute / inch / decimal}
; #@! TF.CreationDate,2022-05-26T22:58:10+02:00
; #@! TF.GenerationSoftware,Kicad,Pcbnew,(6.0.5)
; #@! TF.FileFunction,Plated,1,2,PTH
FMAT,2
INCH
; #@! TA.AperFunction,Plated,PTH,ViaDrill
T1C0.0079
; #@! TA.AperFunction,Plated,PTH,ViaDrill
T2C0.0157
; #@! TA.AperFunction,Plated,PTH,ComponentDrill
T3C0.0394
%
G90
G05
T1
X5.32Y-3.695
X5.405Y-3.775
X5.485Y-3.775
X5.535Y-3.73
X5.575Y-3.375
X5.575Y-3.4
X5.575Y-3.425
X5.6Y-3.375
X5.6Y-3.4
X5.6Y-3.425
X5.625Y-3.375
X5.625Y-3.4
X5.625Y-3.425
X5.63Y-3.135
X5.655Y-3.54
X5.67Y-3.2
X5.74Y-3.73
X5.76Y-3.325
X5.76Y-3.36
X5.785Y-3.2
X5.785Y-3.77
T2
X5.41Y-3.03
X5.415Y-3.215
X5.415Y-3.285
X5.415Y-3.37
X5.415Y-3.43
X5.46Y-3.155
X5.475Y-3.585
X5.48Y-3.73
X5.4856Y-3.4895
X5.525Y-3.585
X5.53Y-3.165
X5.535Y-3.335
X5.535Y-3.465
X5.575Y-3.585
X5.665Y-3.335
X5.665Y-3.465
X5.705Y-3.0561
X5.745Y-3.08
X5.7748Y-3.6505
X5.805Y-3.6
X5.8223Y-3.2999
T3
X5.35Y-3.0494
X5.35Y-3.1494
X5.35Y-3.2494
X5.35Y-3.3494
X5.35Y-3.4494
X5.35Y-3.5494
X5.35Y-3.6494
X5.35Y-3.7494
X5.85Y-3.05
X5.85Y-3.15
X5.85Y-3.25
X5.85Y-3.35
X5.85Y-3.45
X5.85Y-3.55
X5.85Y-3.65
X5.85Y-3.75
T0
M30
