%TF.GenerationSoftware,KiCad,Pcbnew,(6.0.5)*%
%TF.CreationDate,2022-05-26T22:58:09+02:00*%
%TF.ProjectId,STP220_Polulu,53545032-3230-45f5-906f-6c756c752e6b,rev?*%
%TF.SameCoordinates,Original*%
%TF.FileFunction,Soldermask,Top*%
%TF.FilePolarity,Negative*%
%FSLAX46Y46*%
G04 Gerber Fmt 4.6, Leading zero omitted, Abs format (unit mm)*
G04 Created by KiCad (PCBNEW (6.0.5)) date 2022-05-26 22:58:09*
%MOMM*%
%LPD*%
G01*
G04 APERTURE LIST*
%ADD10R,2.000000X2.000000*%
%ADD11R,1.700000X1.700000*%
%ADD12O,1.700000X1.700000*%
G04 APERTURE END LIST*
D10*
%TO.C,J3*%
X144272000Y-78105000D03*
%TD*%
D11*
%TO.C,J2*%
X135890000Y-95235000D03*
D12*
X135890000Y-92695000D03*
X135890000Y-90155000D03*
X135890000Y-87615000D03*
X135890000Y-85075000D03*
X135890000Y-82535000D03*
X135890000Y-79995000D03*
X135890000Y-77455000D03*
%TD*%
D11*
%TO.C,J1*%
X148590000Y-95250000D03*
D12*
X148590000Y-92710000D03*
X148590000Y-90170000D03*
X148590000Y-87630000D03*
X148590000Y-85090000D03*
X148590000Y-82550000D03*
X148590000Y-80010000D03*
X148590000Y-77470000D03*
%TD*%
G36*
X138008191Y-76599907D02*
G01*
X138044155Y-76649407D01*
X138049000Y-76680000D01*
X138049000Y-80502320D01*
X138056547Y-80525547D01*
X138291914Y-80760914D01*
X138313672Y-80772000D01*
X139049320Y-80772000D01*
X139072547Y-80764453D01*
X139307914Y-80529086D01*
X139319000Y-80507328D01*
X139319000Y-76807000D01*
X139337907Y-76748809D01*
X139387407Y-76712845D01*
X139418000Y-76708000D01*
X142268000Y-76708000D01*
X142326191Y-76726907D01*
X142362155Y-76776407D01*
X142367000Y-76807000D01*
X142367000Y-79994320D01*
X142371122Y-80007005D01*
X142375243Y-80010000D01*
X146713000Y-80010000D01*
X146771191Y-80028907D01*
X146807155Y-80078407D01*
X146812000Y-80109000D01*
X146812000Y-90890992D01*
X146793093Y-90949183D01*
X146783004Y-90960996D01*
X145553086Y-92190914D01*
X145542000Y-92212672D01*
X145542000Y-93329320D01*
X145549547Y-93352547D01*
X146148004Y-93951004D01*
X146175781Y-94005521D01*
X146177000Y-94021008D01*
X146177000Y-94827992D01*
X146158093Y-94886183D01*
X146148004Y-94897996D01*
X145443996Y-95602004D01*
X145389479Y-95629781D01*
X145373992Y-95631000D01*
X140757008Y-95631000D01*
X140698817Y-95612093D01*
X140687004Y-95602004D01*
X139982996Y-94897996D01*
X139955219Y-94843479D01*
X139954000Y-94827992D01*
X139954000Y-94376680D01*
X139946453Y-94353453D01*
X139584086Y-93991086D01*
X139562328Y-93980000D01*
X138826680Y-93980000D01*
X138803453Y-93987547D01*
X138458996Y-94332004D01*
X138404479Y-94359781D01*
X138388992Y-94361000D01*
X137132000Y-94361000D01*
X137073809Y-94342093D01*
X137037845Y-94292593D01*
X137033000Y-94262000D01*
X137033000Y-92497008D01*
X137051907Y-92438817D01*
X137061996Y-92427004D01*
X138291914Y-91197086D01*
X138303000Y-91175328D01*
X138303000Y-86375680D01*
X138298878Y-86362995D01*
X138294757Y-86360000D01*
X137132000Y-86360000D01*
X137073809Y-86341093D01*
X137037845Y-86291593D01*
X137033000Y-86261000D01*
X137033000Y-76680000D01*
X137051907Y-76621809D01*
X137101407Y-76585845D01*
X137132000Y-76581000D01*
X137950000Y-76581000D01*
X138008191Y-76599907D01*
G37*
M02*
