%TF.GenerationSoftware,KiCad,Pcbnew,(6.0.5)*%
%TF.CreationDate,2022-05-26T22:58:08+02:00*%
%TF.ProjectId,STP220_Polulu,53545032-3230-45f5-906f-6c756c752e6b,rev?*%
%TF.SameCoordinates,Original*%
%TF.FileFunction,Copper,L2,Bot*%
%TF.FilePolarity,Positive*%
%FSLAX46Y46*%
G04 Gerber Fmt 4.6, Leading zero omitted, Abs format (unit mm)*
G04 Created by KiCad (PCBNEW (6.0.5)) date 2022-05-26 22:58:08*
%MOMM*%
%LPD*%
G01*
G04 APERTURE LIST*
G04 Aperture macros list*
%AMRoundRect*
0 Rectangle with rounded corners*
0 $1 Rounding radius*
0 $2 $3 $4 $5 $6 $7 $8 $9 X,Y pos of 4 corners*
0 Add a 4 corners polygon primitive as box body*
4,1,4,$2,$3,$4,$5,$6,$7,$8,$9,$2,$3,0*
0 Add four circle primitives for the rounded corners*
1,1,$1+$1,$2,$3*
1,1,$1+$1,$4,$5*
1,1,$1+$1,$6,$7*
1,1,$1+$1,$8,$9*
0 Add four rect primitives between the rounded corners*
20,1,$1+$1,$2,$3,$4,$5,0*
20,1,$1+$1,$4,$5,$6,$7,0*
20,1,$1+$1,$6,$7,$8,$9,0*
20,1,$1+$1,$8,$9,$2,$3,0*%
G04 Aperture macros list end*
%TA.AperFunction,ComponentPad*%
%ADD10R,1.700000X1.700000*%
%TD*%
%TA.AperFunction,ComponentPad*%
%ADD11O,1.700000X1.700000*%
%TD*%
%TA.AperFunction,SMDPad,CuDef*%
%ADD12RoundRect,0.200000X0.200000X0.275000X-0.200000X0.275000X-0.200000X-0.275000X0.200000X-0.275000X0*%
%TD*%
%TA.AperFunction,SMDPad,CuDef*%
%ADD13RoundRect,0.200000X-0.200000X-0.275000X0.200000X-0.275000X0.200000X0.275000X-0.200000X0.275000X0*%
%TD*%
%TA.AperFunction,SMDPad,CuDef*%
%ADD14RoundRect,0.200000X0.275000X-0.200000X0.275000X0.200000X-0.275000X0.200000X-0.275000X-0.200000X0*%
%TD*%
%TA.AperFunction,SMDPad,CuDef*%
%ADD15RoundRect,0.062500X0.062500X-0.325000X0.062500X0.325000X-0.062500X0.325000X-0.062500X-0.325000X0*%
%TD*%
%TA.AperFunction,SMDPad,CuDef*%
%ADD16RoundRect,0.062500X0.325000X-0.062500X0.325000X0.062500X-0.325000X0.062500X-0.325000X-0.062500X0*%
%TD*%
%TA.AperFunction,SMDPad,CuDef*%
%ADD17R,1.800000X1.800000*%
%TD*%
%TA.AperFunction,SMDPad,CuDef*%
%ADD18RoundRect,0.150000X-0.150000X0.587500X-0.150000X-0.587500X0.150000X-0.587500X0.150000X0.587500X0*%
%TD*%
%TA.AperFunction,SMDPad,CuDef*%
%ADD19R,1.200000X1.200000*%
%TD*%
%TA.AperFunction,SMDPad,CuDef*%
%ADD20R,1.500000X1.600000*%
%TD*%
%TA.AperFunction,SMDPad,CuDef*%
%ADD21R,0.450000X0.700000*%
%TD*%
%TA.AperFunction,SMDPad,CuDef*%
%ADD22RoundRect,0.225000X0.225000X0.250000X-0.225000X0.250000X-0.225000X-0.250000X0.225000X-0.250000X0*%
%TD*%
%TA.AperFunction,SMDPad,CuDef*%
%ADD23RoundRect,0.200000X-0.275000X0.200000X-0.275000X-0.200000X0.275000X-0.200000X0.275000X0.200000X0*%
%TD*%
%TA.AperFunction,SMDPad,CuDef*%
%ADD24RoundRect,0.225000X-0.250000X0.225000X-0.250000X-0.225000X0.250000X-0.225000X0.250000X0.225000X0*%
%TD*%
%TA.AperFunction,ViaPad*%
%ADD25C,0.400000*%
%TD*%
%TA.AperFunction,ViaPad*%
%ADD26C,0.800000*%
%TD*%
%TA.AperFunction,Conductor*%
%ADD27C,0.250000*%
%TD*%
%TA.AperFunction,Conductor*%
%ADD28C,0.350000*%
%TD*%
%TA.AperFunction,Conductor*%
%ADD29C,0.700000*%
%TD*%
G04 APERTURE END LIST*
D10*
%TO.P,J2,1,Pin_1*%
%TO.N,GND*%
X135890000Y-95235000D03*
D11*
%TO.P,J2,2,Pin_2*%
%TO.N,+5V*%
X135890000Y-92695000D03*
%TO.P,J2,3,Pin_3*%
%TO.N,Net-(U1-Pad3)*%
X135890000Y-90155000D03*
%TO.P,J2,4,Pin_4*%
%TO.N,Net-(U1-Pad5)*%
X135890000Y-87615000D03*
%TO.P,J2,5,Pin_5*%
%TO.N,Net-(U1-Pad8)*%
X135890000Y-85075000D03*
%TO.P,J2,6,Pin_6*%
%TO.N,Net-(U1-Pad10)*%
X135890000Y-82535000D03*
%TO.P,J2,7,Pin_7*%
%TO.N,GND*%
X135890000Y-79995000D03*
%TO.P,J2,8,Pin_8*%
%TO.N,unconnected-(J2-Pad8)*%
X135890000Y-77455000D03*
%TD*%
D10*
%TO.P,J1,1,Pin_1*%
%TO.N,Net-(J1-Pad1)*%
X148590000Y-95250000D03*
D11*
%TO.P,J1,2,Pin_2*%
%TO.N,Net-(J1-Pad2)*%
X148590000Y-92710000D03*
%TO.P,J1,3,Pin_3*%
%TO.N,Net-(U1-Pad14)*%
X148590000Y-90170000D03*
%TO.P,J1,4,Pin_4*%
%TO.N,unconnected-(J1-Pad4)*%
X148590000Y-87630000D03*
%TO.P,J1,5,Pin_5*%
%TO.N,unconnected-(J1-Pad5)*%
X148590000Y-85090000D03*
%TO.P,J1,6,Pin_6*%
%TO.N,unconnected-(J1-Pad6)*%
X148590000Y-82550000D03*
%TO.P,J1,7,Pin_7*%
%TO.N,unconnected-(J1-Pad7)*%
X148590000Y-80010000D03*
%TO.P,J1,8,Pin_8*%
%TO.N,Net-(J1-Pad8)*%
X148590000Y-77470000D03*
%TD*%
D12*
%TO.P,R7,1*%
%TO.N,Net-(R7-Pad1)*%
X140271000Y-89281000D03*
%TO.P,R7,2*%
%TO.N,GND*%
X138621000Y-89281000D03*
%TD*%
%TO.P,R4,1*%
%TO.N,Net-(C1-Pad2)*%
X140271000Y-81661000D03*
%TO.P,R4,2*%
%TO.N,GND*%
X138621000Y-81661000D03*
%TD*%
%TO.P,R6,1*%
%TO.N,Net-(R6-Pad1)*%
X140271000Y-83439000D03*
%TO.P,R6,2*%
%TO.N,GND*%
X138621000Y-83439000D03*
%TD*%
D13*
%TO.P,R10,1*%
%TO.N,Net-(J3-Pad1)*%
X144717000Y-83464400D03*
%TO.P,R10,2*%
%TO.N,+5V*%
X146367000Y-83464400D03*
%TD*%
D14*
%TO.P,R3,1*%
%TO.N,Net-(R3-Pad1)*%
X145923000Y-90804000D03*
%TO.P,R3,2*%
%TO.N,+5V*%
X145923000Y-89154000D03*
%TD*%
D13*
%TO.P,R1,1*%
%TO.N,Net-(Q1-Pad1)*%
X144717000Y-80518000D03*
%TO.P,R1,2*%
%TO.N,Net-(J1-Pad8)*%
X146367000Y-80518000D03*
%TD*%
D15*
%TO.P,U1,1,DIR*%
%TO.N,Net-(J1-Pad1)*%
X142990000Y-87847500D03*
%TO.P,U1,2,STCK*%
%TO.N,Net-(J1-Pad2)*%
X142490000Y-87847500D03*
%TO.P,U1,3,OUTA1*%
%TO.N,Net-(U1-Pad3)*%
X141990000Y-87847500D03*
%TO.P,U1,4,SENSEA*%
%TO.N,Net-(R7-Pad1)*%
X141490000Y-87847500D03*
D16*
%TO.P,U1,5,OUTA2*%
%TO.N,Net-(U1-Pad5)*%
X140752500Y-87110000D03*
%TO.P,U1,6,VS*%
%TO.N,+5V*%
X140752500Y-86610000D03*
%TO.P,U1,7,GND*%
%TO.N,GND*%
X140752500Y-86110000D03*
%TO.P,U1,8,OUTB2*%
%TO.N,Net-(U1-Pad8)*%
X140752500Y-85610000D03*
D15*
%TO.P,U1,9,SENSEB*%
%TO.N,Net-(R6-Pad1)*%
X141490000Y-84872500D03*
%TO.P,U1,10,OUTB1*%
%TO.N,Net-(U1-Pad10)*%
X141990000Y-84872500D03*
%TO.P,U1,11,REF*%
%TO.N,Net-(RV1-Pad2)*%
X142490000Y-84872500D03*
%TO.P,U1,12,TOFF*%
%TO.N,Net-(C1-Pad1)*%
X142990000Y-84872500D03*
D16*
%TO.P,U1,13,EN/FLT*%
%TO.N,Net-(J3-Pad1)*%
X143727500Y-85610000D03*
%TO.P,U1,14,STBY/RESET*%
%TO.N,Net-(U1-Pad14)*%
X143727500Y-86110000D03*
%TO.P,U1,15,MODE2*%
%TO.N,Net-(R3-Pad1)*%
X143727500Y-86610000D03*
%TO.P,U1,16,MODE1*%
%TO.N,Net-(R2-Pad1)*%
X143727500Y-87110000D03*
D17*
%TO.P,U1,17,EPAD*%
%TO.N,GND*%
X142240000Y-86360000D03*
%TD*%
D12*
%TO.P,R8,1*%
%TO.N,GND*%
X146367000Y-81991200D03*
%TO.P,R8,2*%
%TO.N,Net-(Q1-Pad1)*%
X144717000Y-81991200D03*
%TD*%
D18*
%TO.P,Q1,1,B*%
%TO.N,Net-(Q1-Pad1)*%
X143957000Y-76913500D03*
%TO.P,Q1,2,E*%
%TO.N,GND*%
X145857000Y-76913500D03*
%TO.P,Q1,3,C*%
%TO.N,Net-(J3-Pad1)*%
X144907000Y-78788500D03*
%TD*%
D19*
%TO.P,RV1,1,1*%
%TO.N,+5V*%
X138662000Y-78978000D03*
D20*
%TO.P,RV1,2,2*%
%TO.N,Net-(RV1-Pad2)*%
X141912000Y-77978000D03*
D19*
%TO.P,RV1,3,3*%
%TO.N,GND*%
X138662000Y-76978000D03*
%TD*%
D21*
%TO.P,Q2,1,B*%
%TO.N,Net-(Q1-Pad1)*%
X144257000Y-76851000D03*
%TO.P,Q2,2,E*%
%TO.N,GND*%
X145557000Y-76851000D03*
%TO.P,Q2,3,C*%
%TO.N,Net-(J3-Pad1)*%
X144907000Y-78851000D03*
%TD*%
D22*
%TO.P,C1,1*%
%TO.N,Net-(C1-Pad1)*%
X143269000Y-82169000D03*
%TO.P,C1,2*%
%TO.N,Net-(C1-Pad2)*%
X141719000Y-82169000D03*
%TD*%
D13*
%TO.P,R5,1*%
%TO.N,GND*%
X141669000Y-80645000D03*
%TO.P,R5,2*%
%TO.N,Net-(C1-Pad1)*%
X143319000Y-80645000D03*
%TD*%
D23*
%TO.P,R2,1*%
%TO.N,Net-(R2-Pad1)*%
X144399000Y-89154000D03*
%TO.P,R2,2*%
%TO.N,+5V*%
X144399000Y-90804000D03*
%TD*%
D24*
%TO.P,C2,1*%
%TO.N,GND*%
X138811000Y-85585000D03*
%TO.P,C2,2*%
%TO.N,+5V*%
X138811000Y-87135000D03*
%TD*%
D23*
%TO.P,R9,1*%
%TO.N,Net-(U1-Pad14)*%
X145923000Y-86170000D03*
%TO.P,R9,2*%
%TO.N,+5V*%
X145923000Y-87820000D03*
%TD*%
D25*
%TO.N,GND*%
X135128000Y-93853000D03*
X137287000Y-95885000D03*
X139319000Y-95885000D03*
X140589000Y-94742000D03*
X145796000Y-94742000D03*
X146939000Y-95758000D03*
X143002000Y-79629000D03*
X144018000Y-81280000D03*
X146304000Y-84455000D03*
X146304000Y-85344000D03*
X143637000Y-89916000D03*
D26*
X139065000Y-91059000D03*
X140335000Y-91059000D03*
X141605000Y-91059000D03*
X140589000Y-88011000D03*
X140589000Y-84709000D03*
X143891000Y-84709000D03*
X143891000Y-88011000D03*
D25*
X146939000Y-81280000D03*
D26*
X139334150Y-88632588D03*
D25*
X141605000Y-86360000D03*
D26*
X137541000Y-81661000D03*
D25*
X142875000Y-86995000D03*
D26*
X137541000Y-85598000D03*
X137541000Y-83439000D03*
D25*
X142875000Y-86360000D03*
X142240000Y-86360000D03*
D26*
X140462000Y-80391000D03*
D25*
X142240000Y-85725000D03*
D26*
X145923000Y-78232000D03*
D25*
X141605000Y-86995000D03*
X141605000Y-85725000D03*
X142240000Y-86995000D03*
D26*
X137414000Y-76962000D03*
D25*
X142875000Y-85725000D03*
D26*
%TO.N,+5V*%
X147447000Y-91440000D03*
X139192000Y-94742000D03*
X138684000Y-80137000D03*
X147886060Y-83817093D03*
X137541000Y-87122000D03*
%TO.N,Net-(J1-Pad2)*%
X146679388Y-92721601D03*
%TO.N,Net-(J3-Pad1)*%
X144907000Y-77623820D03*
%TD*%
D27*
%TO.N,+5V*%
X137937000Y-94742000D02*
X135890000Y-92695000D01*
X139192000Y-94742000D02*
X137937000Y-94742000D01*
%TO.N,Net-(C1-Pad1)*%
X142990000Y-84872500D02*
X142990000Y-80974000D01*
X142990000Y-80974000D02*
X143319000Y-80645000D01*
%TO.N,Net-(C1-Pad2)*%
X141719000Y-82169000D02*
X141211000Y-81661000D01*
X141211000Y-81661000D02*
X140271000Y-81661000D01*
%TO.N,GND*%
X146367000Y-81852000D02*
X146939000Y-81280000D01*
X137430000Y-76978000D02*
X137414000Y-76962000D01*
X138621000Y-83439000D02*
X137541000Y-83439000D01*
X141990000Y-86110000D02*
X142240000Y-86360000D01*
X137554000Y-85585000D02*
X138811000Y-85585000D01*
X140752500Y-86110000D02*
X141990000Y-86110000D01*
X138662000Y-76978000D02*
X137430000Y-76978000D01*
X137541000Y-85598000D02*
X137554000Y-85585000D01*
X141669000Y-80645000D02*
X140716000Y-80645000D01*
X138621000Y-81661000D02*
X137541000Y-81661000D01*
X145857000Y-76913500D02*
X145857000Y-77150000D01*
X138685738Y-89281000D02*
X139334150Y-88632588D01*
X145923000Y-78232000D02*
X145923000Y-76979500D01*
D28*
X140752500Y-86110000D02*
X139336000Y-86110000D01*
D27*
X138621000Y-89281000D02*
X138685738Y-89281000D01*
X145923000Y-76979500D02*
X145857000Y-76913500D01*
D28*
X139336000Y-86110000D02*
X138811000Y-85585000D01*
D27*
X140716000Y-80645000D02*
X140462000Y-80391000D01*
X146367000Y-81991200D02*
X146367000Y-81852000D01*
%TO.N,+5V*%
X144706217Y-90804000D02*
X144399000Y-90804000D01*
X147533367Y-83464400D02*
X146367000Y-83464400D01*
X138684000Y-79000000D02*
X138662000Y-78978000D01*
X147358480Y-91528520D02*
X145430737Y-91528520D01*
X145923000Y-87820000D02*
X145923000Y-89154000D01*
D28*
X140752500Y-86610000D02*
X139336000Y-86610000D01*
D27*
X137541000Y-87122000D02*
X137554000Y-87135000D01*
X145923000Y-89280000D02*
X144399000Y-90804000D01*
D29*
X137554000Y-87135000D02*
X138811000Y-87135000D01*
D27*
X145430737Y-91528520D02*
X144706217Y-90804000D01*
X138684000Y-80137000D02*
X138684000Y-79000000D01*
D28*
X139336000Y-86610000D02*
X138811000Y-87135000D01*
D27*
X145923000Y-89154000D02*
X145923000Y-89280000D01*
X147447000Y-91440000D02*
X147358480Y-91528520D01*
X147886060Y-83817093D02*
X147533367Y-83464400D01*
%TO.N,Net-(J1-Pad8)*%
X146367000Y-79693000D02*
X148590000Y-77470000D01*
X146367000Y-80645000D02*
X146367000Y-79693000D01*
%TO.N,Net-(R2-Pad1)*%
X143727500Y-87110000D02*
X144894282Y-87110000D01*
X144894282Y-87110000D02*
X144906641Y-87122359D01*
X144906641Y-87122359D02*
X144906641Y-88646359D01*
X144906641Y-88646359D02*
X144399000Y-89154000D01*
%TO.N,Net-(R3-Pad1)*%
X146722520Y-87286520D02*
X146722520Y-90004480D01*
X145415000Y-86995000D02*
X146431000Y-86995000D01*
X146431000Y-86995000D02*
X146722520Y-87286520D01*
X146722520Y-90004480D02*
X145923000Y-90804000D01*
X145030000Y-86610000D02*
X145415000Y-86995000D01*
X143727500Y-86610000D02*
X145030000Y-86610000D01*
%TO.N,Net-(R6-Pad1)*%
X141490000Y-83451000D02*
X141478000Y-83439000D01*
X141490000Y-84872500D02*
X141490000Y-83451000D01*
X141478000Y-83439000D02*
X140017000Y-83439000D01*
%TO.N,Net-(R7-Pad1)*%
X141478000Y-89281000D02*
X140017000Y-89281000D01*
X141490000Y-87847500D02*
X141490000Y-89269000D01*
X141490000Y-89269000D02*
X141478000Y-89281000D01*
%TO.N,Net-(U1-Pad14)*%
X147193000Y-89916000D02*
X147447000Y-90170000D01*
X147193000Y-87121282D02*
X147193000Y-89916000D01*
X143727500Y-86110000D02*
X145863000Y-86110000D01*
X147447000Y-90170000D02*
X148590000Y-90170000D01*
X145923000Y-86170000D02*
X146241718Y-86170000D01*
X146241718Y-86170000D02*
X147193000Y-87121282D01*
X145863000Y-86110000D02*
X145923000Y-86170000D01*
%TO.N,Net-(RV1-Pad2)*%
X142490000Y-84872500D02*
X142493520Y-84868980D01*
X142493520Y-84868980D02*
X142493520Y-78559520D01*
X142493520Y-78559520D02*
X141912000Y-77978000D01*
%TO.N,Net-(J1-Pad1)*%
X147415489Y-94075489D02*
X148590000Y-95250000D01*
X147415489Y-92433103D02*
X147415489Y-94075489D01*
X142990000Y-90611783D02*
X144363706Y-91985489D01*
X142990000Y-87847500D02*
X142990000Y-90611783D01*
X144363706Y-91985489D02*
X146967875Y-91985489D01*
X146967875Y-91985489D02*
X147415489Y-92433103D01*
%TO.N,Net-(J1-Pad2)*%
X146540787Y-92583000D02*
X144325500Y-92583000D01*
X144325500Y-92583000D02*
X142490000Y-90747500D01*
X142490000Y-90747500D02*
X142490000Y-87847500D01*
X146679388Y-92721601D02*
X146540787Y-92583000D01*
%TO.N,Net-(J3-Pad1)*%
X145149000Y-85610000D02*
X145441520Y-85317480D01*
X145441520Y-83539480D02*
X145441520Y-80152737D01*
X145366440Y-83464400D02*
X145441520Y-83539480D01*
X144907000Y-78788500D02*
X144907000Y-77623820D01*
X144717000Y-83464400D02*
X145366440Y-83464400D01*
X144907000Y-79618217D02*
X144907000Y-78788500D01*
X145441520Y-85317480D02*
X145441520Y-83539480D01*
X143727500Y-85610000D02*
X145149000Y-85610000D01*
X145441520Y-80152737D02*
X144907000Y-79618217D01*
%TO.N,Net-(Q1-Pad1)*%
X143957000Y-76913500D02*
X143957000Y-79568000D01*
X144717000Y-80328000D02*
X144717000Y-80645000D01*
X143957000Y-79568000D02*
X144717000Y-80328000D01*
X144717000Y-82169000D02*
X144717000Y-80645000D01*
%TO.N,Net-(U1-Pad10)*%
X141990000Y-83315283D02*
X141664197Y-82989480D01*
X140995520Y-82989480D02*
X140995520Y-82946737D01*
X141990000Y-84872500D02*
X141990000Y-83315283D01*
X140583783Y-82535000D02*
X135890000Y-82535000D01*
X140995520Y-82946737D02*
X140583783Y-82535000D01*
X141664197Y-82989480D02*
X140995520Y-82989480D01*
%TO.N,Net-(U1-Pad8)*%
X139610520Y-85610000D02*
X139610520Y-85132382D01*
X136154520Y-84810480D02*
X135890000Y-85075000D01*
X139288618Y-84810480D02*
X136154520Y-84810480D01*
X139610520Y-85132382D02*
X139288618Y-84810480D01*
X140752500Y-85610000D02*
X139610520Y-85610000D01*
%TO.N,Net-(U1-Pad5)*%
X139288618Y-87909520D02*
X139610520Y-87587618D01*
X139610520Y-87587618D02*
X139610520Y-87110000D01*
X135890000Y-87615000D02*
X136184520Y-87909520D01*
X136184520Y-87909520D02*
X139288618Y-87909520D01*
X139610520Y-87110000D02*
X140752500Y-87110000D01*
%TO.N,Net-(U1-Pad3)*%
X141990000Y-87847500D02*
X141990000Y-89531000D01*
X141990000Y-89531000D02*
X141366000Y-90155000D01*
X141366000Y-90155000D02*
X135890000Y-90155000D01*
%TD*%
%TA.AperFunction,Conductor*%
%TO.N,GND*%
G36*
X142126548Y-89958788D02*
G01*
X142161467Y-90008657D01*
X142164500Y-90031692D01*
X142164500Y-90729404D01*
X142164161Y-90737160D01*
X142160736Y-90776307D01*
X142163456Y-90786455D01*
X142170909Y-90814269D01*
X142172590Y-90821852D01*
X142179412Y-90860545D01*
X142183307Y-90867291D01*
X142185602Y-90873597D01*
X142188431Y-90879662D01*
X142190446Y-90887184D01*
X142212992Y-90919383D01*
X142217153Y-90925915D01*
X142236806Y-90959955D01*
X142242771Y-90964960D01*
X142266907Y-90985213D01*
X142272632Y-90990458D01*
X144082544Y-92800370D01*
X144087789Y-92806095D01*
X144113045Y-92836194D01*
X144119788Y-92840087D01*
X144147081Y-92855844D01*
X144153617Y-92860008D01*
X144185816Y-92882554D01*
X144193338Y-92884569D01*
X144199403Y-92887398D01*
X144205709Y-92889693D01*
X144212455Y-92893588D01*
X144220125Y-92894940D01*
X144220127Y-92894941D01*
X144251147Y-92900410D01*
X144258721Y-92902089D01*
X144296693Y-92912264D01*
X144335840Y-92908839D01*
X144343596Y-92908500D01*
X146047359Y-92908500D01*
X146104567Y-92929322D01*
X146129584Y-92963441D01*
X146154852Y-93024442D01*
X146251106Y-93149883D01*
X146376547Y-93246137D01*
X146381939Y-93248370D01*
X146381940Y-93248371D01*
X146391846Y-93252474D01*
X146522626Y-93306645D01*
X146679388Y-93327283D01*
X146836150Y-93306645D01*
X146966930Y-93252474D01*
X147027752Y-93249818D01*
X147076051Y-93286879D01*
X147089989Y-93334699D01*
X147089989Y-94057393D01*
X147089650Y-94065149D01*
X147086225Y-94104296D01*
X147088240Y-94111815D01*
X147096398Y-94142258D01*
X147098079Y-94149841D01*
X147104901Y-94188534D01*
X147108796Y-94195280D01*
X147111091Y-94201586D01*
X147113920Y-94207651D01*
X147115935Y-94215173D01*
X147138481Y-94247372D01*
X147142642Y-94253904D01*
X147162295Y-94287944D01*
X147188777Y-94310166D01*
X147192400Y-94313206D01*
X147198123Y-94318450D01*
X147513432Y-94633758D01*
X147539161Y-94688934D01*
X147539500Y-94696691D01*
X147539500Y-96119748D01*
X147551133Y-96178231D01*
X147556006Y-96185523D01*
X147559358Y-96193616D01*
X147556395Y-96194843D01*
X147567489Y-96240195D01*
X147540559Y-96294794D01*
X147479019Y-96319500D01*
X136990358Y-96319500D01*
X136933150Y-96298678D01*
X136902710Y-96245955D01*
X136916357Y-96181055D01*
X136923527Y-96170324D01*
X136930105Y-96154442D01*
X136939148Y-96108981D01*
X136940000Y-96100331D01*
X136940000Y-95350694D01*
X136935624Y-95338671D01*
X136929266Y-95335000D01*
X135879000Y-95335000D01*
X135821792Y-95314178D01*
X135791352Y-95261455D01*
X135790000Y-95246000D01*
X135790000Y-94200694D01*
X135785624Y-94188671D01*
X135779266Y-94185000D01*
X135024669Y-94185000D01*
X135016019Y-94185852D01*
X134970558Y-94194895D01*
X134946576Y-94204828D01*
X134945379Y-94201939D01*
X134899820Y-94213092D01*
X134845216Y-94186171D01*
X134820500Y-94124620D01*
X134820500Y-93280154D01*
X134841322Y-93222946D01*
X134894045Y-93192506D01*
X134954000Y-93203078D01*
X134988658Y-93239472D01*
X135002712Y-93266818D01*
X135130677Y-93428270D01*
X135287564Y-93561791D01*
X135291356Y-93563910D01*
X135291357Y-93563911D01*
X135463602Y-93660176D01*
X135463606Y-93660178D01*
X135467398Y-93662297D01*
X135471529Y-93663639D01*
X135471533Y-93663641D01*
X135659189Y-93724614D01*
X135659191Y-93724614D01*
X135663329Y-93725959D01*
X135867894Y-93750351D01*
X135872223Y-93750018D01*
X135872227Y-93750018D01*
X136068964Y-93734880D01*
X136068968Y-93734879D01*
X136073300Y-93734546D01*
X136077488Y-93733377D01*
X136077492Y-93733376D01*
X136195146Y-93700526D01*
X136271725Y-93679145D01*
X136275608Y-93677184D01*
X136275612Y-93677182D01*
X136308626Y-93660505D01*
X136369077Y-93653296D01*
X136411685Y-93677011D01*
X136767743Y-94033069D01*
X136793470Y-94088243D01*
X136777714Y-94147048D01*
X136727844Y-94181967D01*
X136704809Y-94185000D01*
X136005694Y-94185000D01*
X135993671Y-94189376D01*
X135990000Y-94195734D01*
X135990000Y-95119306D01*
X135994376Y-95131329D01*
X136000734Y-95135000D01*
X136924306Y-95135000D01*
X136936329Y-95130624D01*
X136940000Y-95124266D01*
X136940000Y-94420192D01*
X136960822Y-94362984D01*
X137013545Y-94332544D01*
X137073500Y-94343116D01*
X137091931Y-94357257D01*
X137694055Y-94959382D01*
X137699289Y-94965095D01*
X137724545Y-94995194D01*
X137758583Y-95014846D01*
X137765122Y-95019012D01*
X137797316Y-95041554D01*
X137804836Y-95043569D01*
X137810907Y-95046400D01*
X137817210Y-95048694D01*
X137823955Y-95052588D01*
X137862657Y-95059413D01*
X137870227Y-95061091D01*
X137883059Y-95064529D01*
X137900671Y-95069248D01*
X137900673Y-95069248D01*
X137908193Y-95071263D01*
X137947331Y-95067839D01*
X137955088Y-95067500D01*
X138640960Y-95067500D01*
X138698168Y-95088322D01*
X138711568Y-95102320D01*
X138760162Y-95165649D01*
X138760166Y-95165653D01*
X138763718Y-95170282D01*
X138889159Y-95266536D01*
X139035238Y-95327044D01*
X139192000Y-95347682D01*
X139348762Y-95327044D01*
X139494841Y-95266536D01*
X139620282Y-95170282D01*
X139716536Y-95044841D01*
X139728963Y-95014841D01*
X139774811Y-94904153D01*
X139777044Y-94898762D01*
X139797682Y-94742000D01*
X139777044Y-94585238D01*
X139716536Y-94439159D01*
X139620282Y-94313718D01*
X139494841Y-94217464D01*
X139457361Y-94201939D01*
X139354153Y-94159189D01*
X139348762Y-94156956D01*
X139192000Y-94136318D01*
X139035238Y-94156956D01*
X139029847Y-94159189D01*
X138926640Y-94201939D01*
X138889159Y-94217464D01*
X138763718Y-94313718D01*
X138760166Y-94318347D01*
X138760162Y-94318351D01*
X138711568Y-94381680D01*
X138660223Y-94414390D01*
X138640960Y-94416500D01*
X138108692Y-94416500D01*
X138051484Y-94395678D01*
X138045760Y-94390433D01*
X136874256Y-93218930D01*
X136848527Y-93163754D01*
X136855079Y-93124596D01*
X136854323Y-93124344D01*
X136917975Y-92932998D01*
X136919351Y-92928863D01*
X136945171Y-92724474D01*
X136945583Y-92695000D01*
X136925480Y-92489970D01*
X136865935Y-92292749D01*
X136858711Y-92279162D01*
X136771261Y-92114691D01*
X136771260Y-92114690D01*
X136769218Y-92110849D01*
X136639011Y-91951200D01*
X136480275Y-91819882D01*
X136299055Y-91721897D01*
X136102254Y-91660977D01*
X135999811Y-91650210D01*
X135901703Y-91639898D01*
X135901698Y-91639898D01*
X135897369Y-91639443D01*
X135727542Y-91654898D01*
X135704928Y-91656956D01*
X135692203Y-91658114D01*
X135678099Y-91662265D01*
X135498750Y-91715050D01*
X135498747Y-91715051D01*
X135494572Y-91716280D01*
X135490717Y-91718295D01*
X135490713Y-91718297D01*
X135404599Y-91763317D01*
X135312002Y-91811726D01*
X135151447Y-91940815D01*
X135019024Y-92098630D01*
X135016925Y-92102448D01*
X134987491Y-92155988D01*
X134941684Y-92196089D01*
X134880818Y-92197364D01*
X134833372Y-92159216D01*
X134820500Y-92113112D01*
X134820500Y-90740154D01*
X134841322Y-90682946D01*
X134894045Y-90652506D01*
X134954000Y-90663078D01*
X134988658Y-90699472D01*
X135002712Y-90726818D01*
X135010910Y-90737161D01*
X135118683Y-90873137D01*
X135130677Y-90888270D01*
X135170961Y-90922554D01*
X135271555Y-91008166D01*
X135287564Y-91021791D01*
X135291356Y-91023910D01*
X135291357Y-91023911D01*
X135463602Y-91120176D01*
X135463606Y-91120178D01*
X135467398Y-91122297D01*
X135471529Y-91123639D01*
X135471533Y-91123641D01*
X135659189Y-91184614D01*
X135659191Y-91184614D01*
X135663329Y-91185959D01*
X135867894Y-91210351D01*
X135872223Y-91210018D01*
X135872227Y-91210018D01*
X136068964Y-91194880D01*
X136068968Y-91194879D01*
X136073300Y-91194546D01*
X136077488Y-91193377D01*
X136077492Y-91193376D01*
X136195146Y-91160526D01*
X136271725Y-91139145D01*
X136275608Y-91137184D01*
X136275612Y-91137182D01*
X136364652Y-91092204D01*
X136455610Y-91046258D01*
X136493895Y-91016347D01*
X136614519Y-90922106D01*
X136614523Y-90922102D01*
X136617951Y-90919424D01*
X136736774Y-90781765D01*
X136749722Y-90766765D01*
X136749724Y-90766762D01*
X136752564Y-90763472D01*
X136754710Y-90759694D01*
X136754713Y-90759690D01*
X136852175Y-90588125D01*
X136854323Y-90584344D01*
X136858270Y-90572481D01*
X136868606Y-90541408D01*
X136906421Y-90493697D01*
X136953056Y-90480500D01*
X141347904Y-90480500D01*
X141355660Y-90480839D01*
X141394807Y-90484264D01*
X141432779Y-90474089D01*
X141440353Y-90472410D01*
X141471373Y-90466941D01*
X141471375Y-90466940D01*
X141479045Y-90465588D01*
X141485791Y-90461693D01*
X141492097Y-90459398D01*
X141498162Y-90456569D01*
X141505684Y-90454554D01*
X141537883Y-90432008D01*
X141544419Y-90427844D01*
X141552474Y-90423194D01*
X141578455Y-90408194D01*
X141603717Y-90378088D01*
X141608963Y-90372363D01*
X142012568Y-89968759D01*
X142067743Y-89943031D01*
X142126548Y-89958788D01*
G37*
%TD.AperFunction*%
%TA.AperFunction,Conductor*%
G36*
X144549349Y-87456322D02*
G01*
X144579789Y-87509045D01*
X144581141Y-87524500D01*
X144581141Y-88464500D01*
X144560319Y-88521708D01*
X144507596Y-88552148D01*
X144492141Y-88553500D01*
X144123355Y-88553501D01*
X144092482Y-88553501D01*
X143998696Y-88568354D01*
X143992455Y-88571534D01*
X143891896Y-88622771D01*
X143891893Y-88622773D01*
X143885658Y-88625950D01*
X143795950Y-88715658D01*
X143792773Y-88721893D01*
X143792771Y-88721896D01*
X143767244Y-88771996D01*
X143738354Y-88828696D01*
X143737258Y-88835617D01*
X143731107Y-88874455D01*
X143723500Y-88922481D01*
X143723501Y-89385518D01*
X143738354Y-89479304D01*
X143741534Y-89485545D01*
X143792771Y-89586104D01*
X143792773Y-89586107D01*
X143795950Y-89592342D01*
X143885658Y-89682050D01*
X143891893Y-89685227D01*
X143891896Y-89685229D01*
X143943927Y-89711740D01*
X143998696Y-89739646D01*
X144034600Y-89745333D01*
X144089019Y-89753952D01*
X144089023Y-89753952D01*
X144092481Y-89754500D01*
X144095984Y-89754500D01*
X144399482Y-89754499D01*
X144705518Y-89754499D01*
X144770826Y-89744156D01*
X144830587Y-89755773D01*
X144868899Y-89803085D01*
X144867836Y-89863956D01*
X144847682Y-89894991D01*
X144565239Y-90177434D01*
X144510065Y-90203161D01*
X144502308Y-90203500D01*
X144131133Y-90203501D01*
X144092482Y-90203501D01*
X143998696Y-90218354D01*
X143992455Y-90221534D01*
X143891896Y-90272771D01*
X143891893Y-90272773D01*
X143885658Y-90275950D01*
X143795950Y-90365658D01*
X143792773Y-90371893D01*
X143792771Y-90371896D01*
X143784887Y-90387370D01*
X143738354Y-90478696D01*
X143735978Y-90493697D01*
X143725040Y-90562760D01*
X143723500Y-90572481D01*
X143723500Y-90670091D01*
X143702678Y-90727299D01*
X143649955Y-90757739D01*
X143590000Y-90747167D01*
X143571567Y-90733024D01*
X143341567Y-90503024D01*
X143315839Y-90447848D01*
X143315500Y-90440091D01*
X143315500Y-87819025D01*
X143315499Y-87819022D01*
X143315499Y-87524499D01*
X143336321Y-87467292D01*
X143389044Y-87436852D01*
X143404499Y-87435500D01*
X144492141Y-87435500D01*
X144549349Y-87456322D01*
G37*
%TD.AperFunction*%
%TA.AperFunction,Conductor*%
G36*
X141132708Y-87456321D02*
G01*
X141163148Y-87509044D01*
X141164500Y-87524499D01*
X141164500Y-88866500D01*
X141143678Y-88923708D01*
X141090955Y-88954148D01*
X141075500Y-88955500D01*
X140944461Y-88955500D01*
X140887253Y-88934678D01*
X140859816Y-88894000D01*
X140857742Y-88887616D01*
X140856646Y-88880696D01*
X140802380Y-88774193D01*
X140802229Y-88773896D01*
X140802227Y-88773893D01*
X140799050Y-88767658D01*
X140709342Y-88677950D01*
X140703107Y-88674773D01*
X140703104Y-88674771D01*
X140619437Y-88632141D01*
X140596304Y-88620354D01*
X140544708Y-88612182D01*
X140505981Y-88606048D01*
X140505977Y-88606048D01*
X140502519Y-88605500D01*
X140499016Y-88605500D01*
X140270636Y-88605501D01*
X140039482Y-88605501D01*
X139945696Y-88620354D01*
X139939455Y-88623534D01*
X139838896Y-88674771D01*
X139838893Y-88674773D01*
X139832658Y-88677950D01*
X139742950Y-88767658D01*
X139739773Y-88773893D01*
X139739771Y-88773896D01*
X139739620Y-88774193D01*
X139685354Y-88880696D01*
X139670500Y-88974481D01*
X139670501Y-89587518D01*
X139685354Y-89681304D01*
X139694928Y-89700093D01*
X139702348Y-89760519D01*
X139669192Y-89811577D01*
X139615629Y-89829500D01*
X139275811Y-89829500D01*
X139218603Y-89808678D01*
X139188163Y-89755955D01*
X139196511Y-89700095D01*
X139202985Y-89687389D01*
X139207261Y-89674227D01*
X139220453Y-89590932D01*
X139221000Y-89583989D01*
X139221000Y-89396694D01*
X139216624Y-89384671D01*
X139210266Y-89381000D01*
X138036695Y-89381000D01*
X138024672Y-89385376D01*
X138021001Y-89391734D01*
X138021001Y-89583988D01*
X138021548Y-89590932D01*
X138034739Y-89674228D01*
X138039014Y-89687388D01*
X138045489Y-89700095D01*
X138052908Y-89760521D01*
X138019751Y-89811579D01*
X137966189Y-89829500D01*
X136955204Y-89829500D01*
X136897996Y-89808678D01*
X136870004Y-89766224D01*
X136865935Y-89752749D01*
X136828344Y-89682050D01*
X136771261Y-89574691D01*
X136771260Y-89574690D01*
X136769218Y-89570849D01*
X136639011Y-89411200D01*
X136480275Y-89279882D01*
X136299055Y-89181897D01*
X136245458Y-89165306D01*
X138021000Y-89165306D01*
X138025376Y-89177329D01*
X138031734Y-89181000D01*
X138505306Y-89181000D01*
X138517329Y-89176624D01*
X138521000Y-89170266D01*
X138521000Y-89165306D01*
X138721000Y-89165306D01*
X138725376Y-89177329D01*
X138731734Y-89181000D01*
X139205305Y-89181000D01*
X139217328Y-89176624D01*
X139220999Y-89170266D01*
X139220999Y-88978012D01*
X139220452Y-88971068D01*
X139207261Y-88887772D01*
X139202986Y-88874612D01*
X139151820Y-88774193D01*
X139143691Y-88763005D01*
X139063995Y-88683309D01*
X139052807Y-88675180D01*
X138952389Y-88624015D01*
X138939227Y-88619739D01*
X138855932Y-88606547D01*
X138848989Y-88606000D01*
X138736694Y-88606000D01*
X138724671Y-88610376D01*
X138721000Y-88616734D01*
X138721000Y-89165306D01*
X138521000Y-89165306D01*
X138521000Y-88621695D01*
X138516624Y-88609672D01*
X138510266Y-88606001D01*
X138393012Y-88606001D01*
X138386068Y-88606548D01*
X138302772Y-88619739D01*
X138289612Y-88624014D01*
X138189193Y-88675180D01*
X138178005Y-88683309D01*
X138098309Y-88763005D01*
X138090180Y-88774193D01*
X138039015Y-88874611D01*
X138034739Y-88887773D01*
X138021547Y-88971068D01*
X138021000Y-88978011D01*
X138021000Y-89165306D01*
X136245458Y-89165306D01*
X136102254Y-89120977D01*
X135999811Y-89110210D01*
X135901703Y-89099898D01*
X135901698Y-89099898D01*
X135897369Y-89099443D01*
X135692203Y-89118114D01*
X135678099Y-89122265D01*
X135498750Y-89175050D01*
X135498747Y-89175051D01*
X135494572Y-89176280D01*
X135490717Y-89178295D01*
X135490713Y-89178297D01*
X135451170Y-89198970D01*
X135312002Y-89271726D01*
X135151447Y-89400815D01*
X135019024Y-89558630D01*
X135016925Y-89562448D01*
X134987491Y-89615988D01*
X134941684Y-89656089D01*
X134880818Y-89657364D01*
X134833372Y-89619216D01*
X134820500Y-89573112D01*
X134820500Y-88200154D01*
X134841322Y-88142946D01*
X134894045Y-88112506D01*
X134954000Y-88123078D01*
X134988658Y-88159472D01*
X135002712Y-88186818D01*
X135005418Y-88190232D01*
X135114763Y-88328191D01*
X135130677Y-88348270D01*
X135287564Y-88481791D01*
X135291356Y-88483910D01*
X135291357Y-88483911D01*
X135463602Y-88580176D01*
X135463606Y-88580178D01*
X135467398Y-88582297D01*
X135471529Y-88583639D01*
X135471533Y-88583641D01*
X135659189Y-88644614D01*
X135659191Y-88644614D01*
X135663329Y-88645959D01*
X135867894Y-88670351D01*
X135872223Y-88670018D01*
X135872227Y-88670018D01*
X136068964Y-88654880D01*
X136068968Y-88654879D01*
X136073300Y-88654546D01*
X136077488Y-88653377D01*
X136077492Y-88653376D01*
X136208728Y-88616734D01*
X136271725Y-88599145D01*
X136275608Y-88597184D01*
X136275612Y-88597182D01*
X136364763Y-88552148D01*
X136455610Y-88506258D01*
X136540627Y-88439836D01*
X136614519Y-88382106D01*
X136614523Y-88382102D01*
X136617951Y-88379424D01*
X136627738Y-88368086D01*
X136715971Y-88265866D01*
X136769114Y-88236165D01*
X136783344Y-88235020D01*
X139270522Y-88235020D01*
X139278278Y-88235359D01*
X139317425Y-88238784D01*
X139355397Y-88228609D01*
X139362971Y-88226930D01*
X139393991Y-88221461D01*
X139393993Y-88221460D01*
X139401663Y-88220108D01*
X139408409Y-88216213D01*
X139414715Y-88213918D01*
X139420780Y-88211089D01*
X139428302Y-88209074D01*
X139460501Y-88186528D01*
X139467037Y-88182364D01*
X139494330Y-88166607D01*
X139501073Y-88162714D01*
X139526335Y-88132608D01*
X139531581Y-88126883D01*
X139827891Y-87830574D01*
X139833615Y-87825329D01*
X139857749Y-87805078D01*
X139863714Y-87800073D01*
X139883366Y-87766035D01*
X139887532Y-87759496D01*
X139905609Y-87733679D01*
X139905609Y-87733678D01*
X139910074Y-87727302D01*
X139912089Y-87719782D01*
X139914920Y-87713711D01*
X139917214Y-87707408D01*
X139921108Y-87700663D01*
X139927933Y-87661961D01*
X139929612Y-87654385D01*
X139937768Y-87623947D01*
X139937768Y-87623945D01*
X139939783Y-87616425D01*
X139936359Y-87577287D01*
X139936020Y-87569530D01*
X139936020Y-87524500D01*
X139956842Y-87467292D01*
X140009565Y-87436852D01*
X140025020Y-87435500D01*
X140780975Y-87435500D01*
X140780977Y-87435499D01*
X141075500Y-87435499D01*
X141132708Y-87456321D01*
G37*
%TD.AperFunction*%
%TA.AperFunction,Conductor*%
G36*
X147255955Y-83810722D02*
G01*
X147286986Y-83867284D01*
X147300254Y-83968072D01*
X147300255Y-83968077D01*
X147301016Y-83973855D01*
X147303249Y-83979246D01*
X147359066Y-84113999D01*
X147361524Y-84119934D01*
X147365076Y-84124563D01*
X147436509Y-84217656D01*
X147457778Y-84245375D01*
X147583219Y-84341629D01*
X147588611Y-84343862D01*
X147588612Y-84343863D01*
X147670097Y-84377615D01*
X147714982Y-84418744D01*
X147722928Y-84479103D01*
X147714029Y-84502716D01*
X147619776Y-84674162D01*
X147618461Y-84678308D01*
X147618460Y-84678310D01*
X147558798Y-84866388D01*
X147558797Y-84866393D01*
X147557484Y-84870532D01*
X147556999Y-84874852D01*
X147556999Y-84874854D01*
X147536023Y-85061863D01*
X147534520Y-85075262D01*
X147534884Y-85079596D01*
X147549902Y-85258433D01*
X147551759Y-85280553D01*
X147608544Y-85478586D01*
X147702712Y-85661818D01*
X147710029Y-85671050D01*
X147816085Y-85804859D01*
X147830677Y-85823270D01*
X147987564Y-85956791D01*
X147991356Y-85958910D01*
X147991357Y-85958911D01*
X148163602Y-86055176D01*
X148163606Y-86055178D01*
X148167398Y-86057297D01*
X148171529Y-86058639D01*
X148171533Y-86058641D01*
X148359189Y-86119614D01*
X148359191Y-86119614D01*
X148363329Y-86120959D01*
X148567894Y-86145351D01*
X148572223Y-86145018D01*
X148572227Y-86145018D01*
X148768964Y-86129880D01*
X148768968Y-86129879D01*
X148773300Y-86129546D01*
X148777488Y-86128377D01*
X148777492Y-86128376D01*
X148905906Y-86092522D01*
X148971725Y-86074145D01*
X148975608Y-86072184D01*
X148975612Y-86072182D01*
X149075748Y-86021599D01*
X149155610Y-85981258D01*
X149226838Y-85925609D01*
X149314519Y-85857106D01*
X149314523Y-85857102D01*
X149317951Y-85854424D01*
X149409738Y-85748087D01*
X149449722Y-85701765D01*
X149449724Y-85701762D01*
X149452564Y-85698472D01*
X149454710Y-85694694D01*
X149454713Y-85694690D01*
X149493115Y-85627089D01*
X149539477Y-85587632D01*
X149600355Y-85587207D01*
X149647264Y-85626013D01*
X149659500Y-85671050D01*
X149659500Y-87046757D01*
X149638678Y-87103965D01*
X149585955Y-87134405D01*
X149526000Y-87123833D01*
X149491918Y-87088540D01*
X149471266Y-87049699D01*
X149471261Y-87049692D01*
X149469218Y-87045849D01*
X149339011Y-86886200D01*
X149180275Y-86754882D01*
X149157664Y-86742656D01*
X149002889Y-86658970D01*
X148999055Y-86656897D01*
X148802254Y-86595977D01*
X148699812Y-86585210D01*
X148601703Y-86574898D01*
X148601698Y-86574898D01*
X148597369Y-86574443D01*
X148392203Y-86593114D01*
X148341561Y-86608019D01*
X148198750Y-86650050D01*
X148198747Y-86650051D01*
X148194572Y-86651280D01*
X148190717Y-86653295D01*
X148190713Y-86653297D01*
X148044554Y-86729708D01*
X148012002Y-86746726D01*
X147851447Y-86875815D01*
X147762684Y-86981598D01*
X147724189Y-87027475D01*
X147719024Y-87033630D01*
X147716925Y-87037448D01*
X147682796Y-87099529D01*
X147636990Y-87139630D01*
X147576124Y-87140905D01*
X147528678Y-87102758D01*
X147518838Y-87079691D01*
X147518711Y-87079216D01*
X147512087Y-87054498D01*
X147510410Y-87046929D01*
X147504941Y-87015909D01*
X147504940Y-87015907D01*
X147503588Y-87008237D01*
X147499693Y-87001491D01*
X147497398Y-86995185D01*
X147494569Y-86989120D01*
X147492554Y-86981598D01*
X147470008Y-86949399D01*
X147465844Y-86942863D01*
X147450087Y-86915570D01*
X147446194Y-86908827D01*
X147416093Y-86883569D01*
X147410368Y-86878324D01*
X146624566Y-86092522D01*
X146598838Y-86037346D01*
X146598499Y-86029589D01*
X146598499Y-85938482D01*
X146583646Y-85844696D01*
X146563348Y-85804859D01*
X146529229Y-85737896D01*
X146529227Y-85737893D01*
X146526050Y-85731658D01*
X146436342Y-85641950D01*
X146430107Y-85638773D01*
X146430104Y-85638771D01*
X146378073Y-85612260D01*
X146323304Y-85584354D01*
X146287400Y-85578667D01*
X146232981Y-85570048D01*
X146232977Y-85570048D01*
X146229519Y-85569500D01*
X146218274Y-85569500D01*
X145826900Y-85569501D01*
X145769693Y-85548679D01*
X145739253Y-85495956D01*
X145744232Y-85457996D01*
X145741078Y-85457150D01*
X145741810Y-85454420D01*
X145745840Y-85444690D01*
X145745551Y-85444585D01*
X145748213Y-85437271D01*
X145752108Y-85430525D01*
X145758930Y-85391832D01*
X145760611Y-85384249D01*
X145768769Y-85353806D01*
X145770784Y-85346287D01*
X145767359Y-85307137D01*
X145767020Y-85299381D01*
X145767020Y-84120678D01*
X145787842Y-84063470D01*
X145840565Y-84033030D01*
X145900520Y-84043602D01*
X145918953Y-84057745D01*
X145928658Y-84067450D01*
X145934893Y-84070627D01*
X145934896Y-84070629D01*
X145982826Y-84095050D01*
X146041696Y-84125046D01*
X146077600Y-84130733D01*
X146132019Y-84139352D01*
X146132023Y-84139352D01*
X146135481Y-84139900D01*
X146138984Y-84139900D01*
X146367364Y-84139899D01*
X146598518Y-84139899D01*
X146692304Y-84125046D01*
X146714077Y-84113952D01*
X146799104Y-84070629D01*
X146799107Y-84070627D01*
X146805342Y-84067450D01*
X146895050Y-83977742D01*
X146898227Y-83971507D01*
X146898229Y-83971504D01*
X146949466Y-83870945D01*
X146952646Y-83864704D01*
X146953742Y-83857783D01*
X146955816Y-83851400D01*
X146993296Y-83803425D01*
X147040461Y-83789900D01*
X147198747Y-83789900D01*
X147255955Y-83810722D01*
G37*
%TD.AperFunction*%
%TA.AperFunction,Conductor*%
G36*
X138119186Y-85156802D02*
G01*
X138149626Y-85209525D01*
X138149882Y-85238903D01*
X138136548Y-85323088D01*
X138136000Y-85330052D01*
X138136000Y-85469306D01*
X138140376Y-85481329D01*
X138146734Y-85485000D01*
X138822000Y-85485000D01*
X138879208Y-85505822D01*
X138909648Y-85558545D01*
X138911000Y-85574000D01*
X138911000Y-86219305D01*
X138915376Y-86231328D01*
X138921734Y-86234999D01*
X138965098Y-86234999D01*
X139022306Y-86255821D01*
X139052746Y-86308544D01*
X139042174Y-86368499D01*
X139028031Y-86386932D01*
X138956530Y-86458433D01*
X138901354Y-86484161D01*
X138893597Y-86484500D01*
X138527512Y-86484500D01*
X138524054Y-86485048D01*
X138524050Y-86485048D01*
X138465699Y-86494290D01*
X138427874Y-86500281D01*
X138386035Y-86521599D01*
X138314018Y-86558293D01*
X138314015Y-86558295D01*
X138307780Y-86561472D01*
X138302830Y-86566422D01*
X138301342Y-86567503D01*
X138249030Y-86584500D01*
X137830246Y-86584500D01*
X137796187Y-86577725D01*
X137703153Y-86539189D01*
X137697762Y-86536956D01*
X137541000Y-86516318D01*
X137384238Y-86536956D01*
X137378847Y-86539189D01*
X137248661Y-86593114D01*
X137238159Y-86597464D01*
X137112718Y-86693718D01*
X137109166Y-86698347D01*
X137081459Y-86734456D01*
X137016464Y-86819159D01*
X137014231Y-86824551D01*
X137014230Y-86824552D01*
X136958189Y-86959847D01*
X136955956Y-86965238D01*
X136951953Y-86995645D01*
X136948263Y-87023672D01*
X136920152Y-87077673D01*
X136863906Y-87100970D01*
X136805844Y-87082663D01*
X136781441Y-87053837D01*
X136771263Y-87034695D01*
X136769218Y-87030849D01*
X136639011Y-86871200D01*
X136480275Y-86739882D01*
X136403556Y-86698400D01*
X136302889Y-86643970D01*
X136299055Y-86641897D01*
X136102254Y-86580977D01*
X135999812Y-86570210D01*
X135901703Y-86559898D01*
X135901698Y-86559898D01*
X135897369Y-86559443D01*
X135692203Y-86578114D01*
X135678099Y-86582265D01*
X135498750Y-86635050D01*
X135498747Y-86635051D01*
X135494572Y-86636280D01*
X135490717Y-86638295D01*
X135490713Y-86638297D01*
X135375748Y-86698400D01*
X135312002Y-86731726D01*
X135151447Y-86860815D01*
X135019024Y-87018630D01*
X135016925Y-87022448D01*
X134987491Y-87075988D01*
X134941684Y-87116089D01*
X134880818Y-87117364D01*
X134833372Y-87079216D01*
X134820500Y-87033112D01*
X134820500Y-85660154D01*
X134841322Y-85602946D01*
X134894045Y-85572506D01*
X134954000Y-85583078D01*
X134988658Y-85619472D01*
X135002712Y-85646818D01*
X135005418Y-85650232D01*
X135104514Y-85775260D01*
X135130677Y-85808270D01*
X135195213Y-85863194D01*
X135262651Y-85920588D01*
X135287564Y-85941791D01*
X135291356Y-85943910D01*
X135291357Y-85943911D01*
X135463602Y-86040176D01*
X135463606Y-86040178D01*
X135467398Y-86042297D01*
X135471529Y-86043639D01*
X135471533Y-86043641D01*
X135659189Y-86104614D01*
X135659191Y-86104614D01*
X135663329Y-86105959D01*
X135867894Y-86130351D01*
X135872223Y-86130018D01*
X135872227Y-86130018D01*
X136068964Y-86114880D01*
X136068968Y-86114879D01*
X136073300Y-86114546D01*
X136077488Y-86113377D01*
X136077492Y-86113376D01*
X136195146Y-86080526D01*
X136271725Y-86059145D01*
X136275608Y-86057184D01*
X136275612Y-86057182D01*
X136379656Y-86004625D01*
X136455610Y-85966258D01*
X136471332Y-85953975D01*
X136614519Y-85842106D01*
X136614523Y-85842102D01*
X136617267Y-85839958D01*
X138136001Y-85839958D01*
X138136548Y-85846901D01*
X138150666Y-85936047D01*
X138154944Y-85949214D01*
X138209700Y-86056679D01*
X138217835Y-86067876D01*
X138303124Y-86153165D01*
X138314321Y-86161300D01*
X138421785Y-86216055D01*
X138434954Y-86220334D01*
X138524087Y-86234452D01*
X138531052Y-86235000D01*
X138695306Y-86235000D01*
X138707329Y-86230624D01*
X138711000Y-86224266D01*
X138711000Y-85700694D01*
X138706624Y-85688671D01*
X138700266Y-85685000D01*
X138151695Y-85685000D01*
X138139672Y-85689376D01*
X138136001Y-85695734D01*
X138136001Y-85839958D01*
X136617267Y-85839958D01*
X136617951Y-85839424D01*
X136736774Y-85701765D01*
X136749722Y-85686765D01*
X136749724Y-85686762D01*
X136752564Y-85683472D01*
X136754710Y-85679694D01*
X136754713Y-85679690D01*
X136852175Y-85508125D01*
X136854323Y-85504344D01*
X136857114Y-85495956D01*
X136886631Y-85407224D01*
X136919351Y-85308863D01*
X136931357Y-85213825D01*
X136959185Y-85159678D01*
X137019655Y-85135980D01*
X138061978Y-85135980D01*
X138119186Y-85156802D01*
G37*
%TD.AperFunction*%
%TA.AperFunction,Conductor*%
G36*
X139553126Y-85935500D02*
G01*
X140084930Y-85935500D01*
X140142138Y-85956322D01*
X140169327Y-86004625D01*
X140175420Y-86009968D01*
X140175590Y-86010000D01*
X140763500Y-86010000D01*
X140820708Y-86030822D01*
X140851148Y-86083545D01*
X140852500Y-86099000D01*
X140852500Y-86121000D01*
X140831678Y-86178208D01*
X140778955Y-86208648D01*
X140763500Y-86210000D01*
X140183010Y-86210000D01*
X140144531Y-86224005D01*
X140138415Y-86229136D01*
X140107984Y-86234500D01*
X139452407Y-86234500D01*
X139395199Y-86213678D01*
X139364759Y-86160955D01*
X139375331Y-86101000D01*
X139389474Y-86082567D01*
X139404165Y-86067876D01*
X139412296Y-86056683D01*
X139451305Y-85980124D01*
X139495830Y-85938604D01*
X139545961Y-85932892D01*
X139553126Y-85935500D01*
G37*
%TD.AperFunction*%
%TA.AperFunction,Conductor*%
G36*
X144022825Y-80094151D02*
G01*
X144090434Y-80161761D01*
X144116161Y-80216935D01*
X144116500Y-80224692D01*
X144116501Y-80529306D01*
X144116501Y-80824518D01*
X144131354Y-80918304D01*
X144137694Y-80930748D01*
X144185771Y-81025104D01*
X144185773Y-81025107D01*
X144188950Y-81031342D01*
X144278658Y-81121050D01*
X144284899Y-81124230D01*
X144342906Y-81153787D01*
X144384425Y-81198311D01*
X144391500Y-81233086D01*
X144391500Y-81276114D01*
X144370678Y-81333322D01*
X144342906Y-81355413D01*
X144284899Y-81384970D01*
X144278658Y-81388150D01*
X144188950Y-81477858D01*
X144185773Y-81484093D01*
X144185771Y-81484096D01*
X144172939Y-81509281D01*
X144131354Y-81590896D01*
X144130258Y-81597817D01*
X144117613Y-81677656D01*
X144116500Y-81684681D01*
X144116501Y-82297718D01*
X144131354Y-82391504D01*
X144134534Y-82397745D01*
X144185771Y-82498304D01*
X144185773Y-82498307D01*
X144188950Y-82504542D01*
X144278658Y-82594250D01*
X144284896Y-82597429D01*
X144284901Y-82597432D01*
X144385129Y-82648501D01*
X144426649Y-82693025D01*
X144429835Y-82753821D01*
X144393197Y-82802442D01*
X144385129Y-82807099D01*
X144284901Y-82858168D01*
X144284896Y-82858171D01*
X144278658Y-82861350D01*
X144188950Y-82951058D01*
X144185773Y-82957293D01*
X144185771Y-82957296D01*
X144174537Y-82979344D01*
X144131354Y-83064096D01*
X144130258Y-83071017D01*
X144118261Y-83146765D01*
X144116500Y-83157881D01*
X144116501Y-83770918D01*
X144131354Y-83864704D01*
X144134534Y-83870945D01*
X144185771Y-83971504D01*
X144185773Y-83971507D01*
X144188950Y-83977742D01*
X144278658Y-84067450D01*
X144284893Y-84070627D01*
X144284896Y-84070629D01*
X144332826Y-84095050D01*
X144391696Y-84125046D01*
X144427600Y-84130733D01*
X144482019Y-84139352D01*
X144482023Y-84139352D01*
X144485481Y-84139900D01*
X144488984Y-84139900D01*
X144717364Y-84139899D01*
X144948518Y-84139899D01*
X145013099Y-84129671D01*
X145072859Y-84141287D01*
X145111171Y-84188600D01*
X145116020Y-84217575D01*
X145116020Y-85145788D01*
X145095198Y-85202996D01*
X145089953Y-85208721D01*
X145040241Y-85258433D01*
X144985065Y-85284161D01*
X144977308Y-85284500D01*
X143699025Y-85284500D01*
X143699023Y-85284501D01*
X143404500Y-85284501D01*
X143347292Y-85263679D01*
X143316852Y-85210956D01*
X143315500Y-85195501D01*
X143315500Y-82933500D01*
X143336322Y-82876292D01*
X143389045Y-82845852D01*
X143404500Y-82844500D01*
X143527488Y-82844500D01*
X143530946Y-82843952D01*
X143530950Y-82843952D01*
X143589301Y-82834710D01*
X143627126Y-82828719D01*
X143685340Y-82799058D01*
X143740982Y-82770707D01*
X143740985Y-82770705D01*
X143747220Y-82767528D01*
X143842528Y-82672220D01*
X143845705Y-82665985D01*
X143845707Y-82665982D01*
X143889784Y-82579474D01*
X143903719Y-82552126D01*
X143919500Y-82452488D01*
X143919500Y-81885512D01*
X143903719Y-81785874D01*
X143853958Y-81688212D01*
X143845707Y-81672018D01*
X143845705Y-81672015D01*
X143842528Y-81665780D01*
X143747220Y-81570472D01*
X143740985Y-81567295D01*
X143740982Y-81567293D01*
X143642795Y-81517265D01*
X143627126Y-81509281D01*
X143573901Y-81500851D01*
X143546973Y-81496586D01*
X143493727Y-81467071D01*
X143471910Y-81410235D01*
X143491730Y-81352672D01*
X143543914Y-81321317D01*
X143549927Y-81320499D01*
X143550518Y-81320499D01*
X143644304Y-81305646D01*
X143702264Y-81276114D01*
X143751104Y-81251229D01*
X143751107Y-81251227D01*
X143757342Y-81248050D01*
X143847050Y-81158342D01*
X143850227Y-81152107D01*
X143850229Y-81152104D01*
X143876740Y-81100073D01*
X143904646Y-81045304D01*
X143910333Y-81009400D01*
X143918952Y-80954981D01*
X143918952Y-80954977D01*
X143919500Y-80951519D01*
X143919499Y-80338482D01*
X143904646Y-80244696D01*
X143880594Y-80197491D01*
X143873174Y-80137065D01*
X143906331Y-80086007D01*
X143964550Y-80068207D01*
X144022825Y-80094151D01*
G37*
%TD.AperFunction*%
%TA.AperFunction,Conductor*%
G36*
X138038683Y-82881322D02*
G01*
X138069123Y-82934045D01*
X138060774Y-82989905D01*
X138039017Y-83032606D01*
X138034739Y-83045773D01*
X138021547Y-83129068D01*
X138021000Y-83136007D01*
X138021000Y-83323306D01*
X138025376Y-83335329D01*
X138031734Y-83339000D01*
X139205305Y-83339000D01*
X139217328Y-83334624D01*
X139220999Y-83328266D01*
X139220999Y-83136007D01*
X139220452Y-83129068D01*
X139207261Y-83045772D01*
X139202984Y-83032607D01*
X139181226Y-82989905D01*
X139173806Y-82929480D01*
X139206963Y-82878422D01*
X139260525Y-82860500D01*
X139630914Y-82860500D01*
X139688122Y-82881322D01*
X139718562Y-82934045D01*
X139710214Y-82989905D01*
X139685354Y-83038696D01*
X139684258Y-83045617D01*
X139674565Y-83106818D01*
X139670500Y-83132481D01*
X139670501Y-83745518D01*
X139685354Y-83839304D01*
X139688534Y-83845545D01*
X139739771Y-83946104D01*
X139739773Y-83946107D01*
X139742950Y-83952342D01*
X139832658Y-84042050D01*
X139838893Y-84045227D01*
X139838896Y-84045229D01*
X139872793Y-84062500D01*
X139945696Y-84099646D01*
X139968552Y-84103266D01*
X140036019Y-84113952D01*
X140036023Y-84113952D01*
X140039481Y-84114500D01*
X140042984Y-84114500D01*
X140271364Y-84114499D01*
X140502518Y-84114499D01*
X140596304Y-84099646D01*
X140653253Y-84070629D01*
X140703104Y-84045229D01*
X140703107Y-84045227D01*
X140709342Y-84042050D01*
X140799050Y-83952342D01*
X140802227Y-83946107D01*
X140802229Y-83946104D01*
X140853466Y-83845545D01*
X140856646Y-83839304D01*
X140857742Y-83832383D01*
X140859816Y-83826000D01*
X140897296Y-83778025D01*
X140944461Y-83764500D01*
X141075500Y-83764500D01*
X141132708Y-83785322D01*
X141163148Y-83838045D01*
X141164500Y-83853500D01*
X141164500Y-84900969D01*
X141164501Y-84900981D01*
X141164501Y-85195500D01*
X141143679Y-85252708D01*
X141090956Y-85283148D01*
X141075501Y-85284500D01*
X140025020Y-85284500D01*
X139967812Y-85263678D01*
X139937372Y-85210955D01*
X139936020Y-85195500D01*
X139936020Y-85150470D01*
X139936359Y-85142714D01*
X139939104Y-85111331D01*
X139939783Y-85103575D01*
X139929611Y-85065609D01*
X139927932Y-85058036D01*
X139922460Y-85027005D01*
X139921108Y-85019337D01*
X139917214Y-85012592D01*
X139914920Y-85006289D01*
X139912089Y-85000218D01*
X139910074Y-84992698D01*
X139887532Y-84960504D01*
X139883361Y-84953957D01*
X139863714Y-84919927D01*
X139833613Y-84894669D01*
X139827889Y-84889424D01*
X139531579Y-84593115D01*
X139526333Y-84587390D01*
X139506078Y-84563251D01*
X139501073Y-84557286D01*
X139467033Y-84537633D01*
X139460501Y-84533472D01*
X139428302Y-84510926D01*
X139420780Y-84508911D01*
X139414715Y-84506082D01*
X139408409Y-84503787D01*
X139401663Y-84499892D01*
X139393993Y-84498540D01*
X139393991Y-84498539D01*
X139366147Y-84493630D01*
X139362970Y-84493070D01*
X139355397Y-84491391D01*
X139317425Y-84481216D01*
X139278279Y-84484641D01*
X139270522Y-84484980D01*
X136806692Y-84484980D01*
X136749484Y-84464158D01*
X136737722Y-84452231D01*
X136653993Y-84349570D01*
X136639011Y-84331200D01*
X136480275Y-84199882D01*
X136459410Y-84188600D01*
X136302889Y-84103970D01*
X136299055Y-84101897D01*
X136102254Y-84040977D01*
X135999812Y-84030210D01*
X135901703Y-84019898D01*
X135901698Y-84019898D01*
X135897369Y-84019443D01*
X135727542Y-84034898D01*
X135707840Y-84036691D01*
X135692203Y-84038114D01*
X135656041Y-84048757D01*
X135498750Y-84095050D01*
X135498747Y-84095051D01*
X135494572Y-84096280D01*
X135490717Y-84098295D01*
X135490713Y-84098297D01*
X135430701Y-84129671D01*
X135312002Y-84191726D01*
X135151447Y-84320815D01*
X135019024Y-84478630D01*
X135016925Y-84482448D01*
X134987491Y-84535988D01*
X134941684Y-84576089D01*
X134880818Y-84577364D01*
X134833372Y-84539216D01*
X134820500Y-84493112D01*
X134820500Y-83741988D01*
X138021001Y-83741988D01*
X138021548Y-83748932D01*
X138034739Y-83832228D01*
X138039014Y-83845388D01*
X138090180Y-83945807D01*
X138098309Y-83956995D01*
X138178005Y-84036691D01*
X138189193Y-84044820D01*
X138289611Y-84095985D01*
X138302773Y-84100261D01*
X138386068Y-84113453D01*
X138393011Y-84114000D01*
X138505306Y-84114000D01*
X138517329Y-84109624D01*
X138521000Y-84103266D01*
X138521000Y-84098305D01*
X138721000Y-84098305D01*
X138725376Y-84110328D01*
X138731734Y-84113999D01*
X138848988Y-84113999D01*
X138855932Y-84113452D01*
X138939228Y-84100261D01*
X138952388Y-84095986D01*
X139052807Y-84044820D01*
X139063995Y-84036691D01*
X139143691Y-83956995D01*
X139151820Y-83945807D01*
X139202985Y-83845389D01*
X139207261Y-83832227D01*
X139220453Y-83748932D01*
X139221000Y-83741989D01*
X139221000Y-83554694D01*
X139216624Y-83542671D01*
X139210266Y-83539000D01*
X138736694Y-83539000D01*
X138724671Y-83543376D01*
X138721000Y-83549734D01*
X138721000Y-84098305D01*
X138521000Y-84098305D01*
X138521000Y-83554694D01*
X138516624Y-83542671D01*
X138510266Y-83539000D01*
X138036695Y-83539000D01*
X138024672Y-83543376D01*
X138021001Y-83549734D01*
X138021001Y-83741988D01*
X134820500Y-83741988D01*
X134820500Y-83120154D01*
X134841322Y-83062946D01*
X134894045Y-83032506D01*
X134954000Y-83043078D01*
X134988658Y-83079472D01*
X135002712Y-83106818D01*
X135005418Y-83110232D01*
X135096226Y-83224803D01*
X135130677Y-83268270D01*
X135287564Y-83401791D01*
X135291356Y-83403910D01*
X135291357Y-83403911D01*
X135463602Y-83500176D01*
X135463606Y-83500178D01*
X135467398Y-83502297D01*
X135471529Y-83503639D01*
X135471533Y-83503641D01*
X135659189Y-83564614D01*
X135659191Y-83564614D01*
X135663329Y-83565959D01*
X135867894Y-83590351D01*
X135872223Y-83590018D01*
X135872227Y-83590018D01*
X136068964Y-83574880D01*
X136068968Y-83574879D01*
X136073300Y-83574546D01*
X136077488Y-83573377D01*
X136077492Y-83573376D01*
X136200612Y-83539000D01*
X136271725Y-83519145D01*
X136275608Y-83517184D01*
X136275612Y-83517182D01*
X136364652Y-83472204D01*
X136455610Y-83426258D01*
X136567296Y-83339000D01*
X136614519Y-83302106D01*
X136614523Y-83302102D01*
X136617951Y-83299424D01*
X136702968Y-83200930D01*
X136749722Y-83146765D01*
X136749724Y-83146762D01*
X136752564Y-83143472D01*
X136754710Y-83139694D01*
X136754713Y-83139690D01*
X136852175Y-82968125D01*
X136854323Y-82964344D01*
X136860390Y-82946108D01*
X136868606Y-82921408D01*
X136906421Y-82873697D01*
X136953056Y-82860500D01*
X137981475Y-82860500D01*
X138038683Y-82881322D01*
G37*
%TD.AperFunction*%
%TA.AperFunction,Conductor*%
G36*
X149647264Y-78006013D02*
G01*
X149659500Y-78051050D01*
X149659500Y-79426757D01*
X149638678Y-79483965D01*
X149585955Y-79514405D01*
X149526000Y-79503833D01*
X149491918Y-79468540D01*
X149471266Y-79429699D01*
X149471261Y-79429692D01*
X149469218Y-79425849D01*
X149339011Y-79266200D01*
X149180275Y-79134882D01*
X149146508Y-79116624D01*
X149002889Y-79038970D01*
X148999055Y-79036897D01*
X148802254Y-78975977D01*
X148699812Y-78965210D01*
X148601703Y-78954898D01*
X148601698Y-78954898D01*
X148597369Y-78954443D01*
X148392203Y-78973114D01*
X148378099Y-78977265D01*
X148198750Y-79030050D01*
X148198747Y-79030051D01*
X148194572Y-79031280D01*
X148190717Y-79033295D01*
X148190713Y-79033297D01*
X148043751Y-79110128D01*
X148012002Y-79126726D01*
X147851447Y-79255815D01*
X147719024Y-79413630D01*
X147619776Y-79594162D01*
X147618461Y-79598308D01*
X147618460Y-79598310D01*
X147558798Y-79786388D01*
X147558797Y-79786393D01*
X147557484Y-79790532D01*
X147556999Y-79794852D01*
X147556999Y-79794854D01*
X147535387Y-79987535D01*
X147534520Y-79995262D01*
X147534884Y-79999596D01*
X147546908Y-80142780D01*
X147551759Y-80200553D01*
X147608544Y-80398586D01*
X147702712Y-80581818D01*
X147705418Y-80585232D01*
X147820747Y-80730741D01*
X147830677Y-80743270D01*
X147987564Y-80876791D01*
X147991356Y-80878910D01*
X147991357Y-80878911D01*
X148163602Y-80975176D01*
X148163606Y-80975178D01*
X148167398Y-80977297D01*
X148171529Y-80978639D01*
X148171533Y-80978641D01*
X148359189Y-81039614D01*
X148359191Y-81039614D01*
X148363329Y-81040959D01*
X148567894Y-81065351D01*
X148572223Y-81065018D01*
X148572227Y-81065018D01*
X148768964Y-81049880D01*
X148768968Y-81049879D01*
X148773300Y-81049546D01*
X148777488Y-81048377D01*
X148777492Y-81048376D01*
X148936378Y-81004014D01*
X148971725Y-80994145D01*
X148975608Y-80992184D01*
X148975612Y-80992182D01*
X149064652Y-80947204D01*
X149155610Y-80901258D01*
X149203940Y-80863499D01*
X149314519Y-80777106D01*
X149314523Y-80777102D01*
X149317951Y-80774424D01*
X149413464Y-80663770D01*
X149449722Y-80621765D01*
X149449724Y-80621762D01*
X149452564Y-80618472D01*
X149454710Y-80614694D01*
X149454713Y-80614690D01*
X149493115Y-80547089D01*
X149539477Y-80507632D01*
X149600355Y-80507207D01*
X149647264Y-80546013D01*
X149659500Y-80591050D01*
X149659500Y-81966757D01*
X149638678Y-82023965D01*
X149585955Y-82054405D01*
X149526000Y-82043833D01*
X149491918Y-82008540D01*
X149471266Y-81969699D01*
X149471261Y-81969692D01*
X149469218Y-81965849D01*
X149339011Y-81806200D01*
X149180275Y-81674882D01*
X149157664Y-81662656D01*
X149002889Y-81578970D01*
X148999055Y-81576897D01*
X148802254Y-81515977D01*
X148699811Y-81505210D01*
X148601703Y-81494898D01*
X148601698Y-81494898D01*
X148597369Y-81494443D01*
X148392203Y-81513114D01*
X148378099Y-81517265D01*
X148198750Y-81570050D01*
X148198747Y-81570051D01*
X148194572Y-81571280D01*
X148190717Y-81573295D01*
X148190713Y-81573297D01*
X148143515Y-81597972D01*
X148012002Y-81666726D01*
X147851447Y-81795815D01*
X147780416Y-81880466D01*
X147724189Y-81947475D01*
X147719024Y-81953630D01*
X147619776Y-82134162D01*
X147618461Y-82138308D01*
X147618460Y-82138310D01*
X147558798Y-82326388D01*
X147558797Y-82326393D01*
X147557484Y-82330532D01*
X147556999Y-82334852D01*
X147556999Y-82334854D01*
X147535005Y-82530937D01*
X147534520Y-82535262D01*
X147534884Y-82539596D01*
X147546437Y-82677170D01*
X147551759Y-82740553D01*
X147608544Y-82938586D01*
X147610534Y-82942457D01*
X147610537Y-82942466D01*
X147643531Y-83006665D01*
X147651161Y-83067064D01*
X147618182Y-83118237D01*
X147562111Y-83134421D01*
X147562174Y-83135136D01*
X147523028Y-83138561D01*
X147515271Y-83138900D01*
X147040461Y-83138900D01*
X146983253Y-83118078D01*
X146955816Y-83077400D01*
X146953742Y-83071016D01*
X146952646Y-83064096D01*
X146936790Y-83032977D01*
X146898229Y-82957296D01*
X146898227Y-82957293D01*
X146895050Y-82951058D01*
X146805342Y-82861350D01*
X146799107Y-82858173D01*
X146799104Y-82858171D01*
X146721755Y-82818760D01*
X146698321Y-82806820D01*
X146656801Y-82762295D01*
X146653615Y-82701499D01*
X146690253Y-82652878D01*
X146698321Y-82648221D01*
X146798802Y-82597023D01*
X146809995Y-82588891D01*
X146889691Y-82509195D01*
X146897820Y-82498007D01*
X146948985Y-82397589D01*
X146953261Y-82384427D01*
X146966453Y-82301132D01*
X146967000Y-82294189D01*
X146967000Y-82106894D01*
X146962624Y-82094871D01*
X146956266Y-82091200D01*
X146356000Y-82091200D01*
X146298792Y-82070378D01*
X146268352Y-82017655D01*
X146267000Y-82002200D01*
X146267000Y-81980200D01*
X146287822Y-81922992D01*
X146340545Y-81892552D01*
X146356000Y-81891200D01*
X146951305Y-81891200D01*
X146963328Y-81886824D01*
X146966999Y-81880466D01*
X146966999Y-81688212D01*
X146966452Y-81681268D01*
X146953261Y-81597972D01*
X146948986Y-81584812D01*
X146897820Y-81484393D01*
X146889691Y-81473205D01*
X146809995Y-81393509D01*
X146798802Y-81385377D01*
X146698321Y-81334179D01*
X146656801Y-81289655D01*
X146653615Y-81228859D01*
X146690253Y-81180238D01*
X146698321Y-81175580D01*
X146700877Y-81174278D01*
X146732153Y-81158342D01*
X146799104Y-81124229D01*
X146799107Y-81124227D01*
X146805342Y-81121050D01*
X146895050Y-81031342D01*
X146898227Y-81025107D01*
X146898229Y-81025104D01*
X146937521Y-80947988D01*
X146952646Y-80918304D01*
X146967500Y-80824519D01*
X146967499Y-80211482D01*
X146952646Y-80117696D01*
X146916782Y-80047309D01*
X146898229Y-80010896D01*
X146898227Y-80010893D01*
X146895050Y-80004658D01*
X146805342Y-79914950D01*
X146782020Y-79903067D01*
X146740500Y-79858542D01*
X146737314Y-79797746D01*
X146759492Y-79760834D01*
X148066075Y-78454251D01*
X148121251Y-78428523D01*
X148164318Y-78435576D01*
X148167398Y-78437297D01*
X148309197Y-78483370D01*
X148359189Y-78499614D01*
X148359191Y-78499614D01*
X148363329Y-78500959D01*
X148567894Y-78525351D01*
X148572223Y-78525018D01*
X148572227Y-78525018D01*
X148768964Y-78509880D01*
X148768968Y-78509879D01*
X148773300Y-78509546D01*
X148777488Y-78508377D01*
X148777492Y-78508376D01*
X148895146Y-78475526D01*
X148971725Y-78454145D01*
X148975608Y-78452184D01*
X148975612Y-78452182D01*
X149064959Y-78407049D01*
X149155610Y-78361258D01*
X149234313Y-78299769D01*
X149314519Y-78237106D01*
X149314523Y-78237102D01*
X149317951Y-78234424D01*
X149434942Y-78098888D01*
X149449722Y-78081765D01*
X149449724Y-78081762D01*
X149452564Y-78078472D01*
X149454710Y-78074694D01*
X149454713Y-78074690D01*
X149493115Y-78007089D01*
X149539477Y-77967632D01*
X149600355Y-77967207D01*
X149647264Y-78006013D01*
G37*
%TD.AperFunction*%
%TA.AperFunction,Conductor*%
G36*
X137830208Y-76421322D02*
G01*
X137860648Y-76474045D01*
X137862000Y-76489500D01*
X137862000Y-76862306D01*
X137866376Y-76874329D01*
X137872734Y-76878000D01*
X138673000Y-76878000D01*
X138730208Y-76898822D01*
X138760648Y-76951545D01*
X138762000Y-76967000D01*
X138762000Y-77762306D01*
X138766376Y-77774329D01*
X138772734Y-77778000D01*
X139103000Y-77778000D01*
X139160208Y-77798822D01*
X139190648Y-77851545D01*
X139192000Y-77867000D01*
X139192000Y-78088500D01*
X139171178Y-78145708D01*
X139118455Y-78176148D01*
X139103000Y-78177500D01*
X138042252Y-78177500D01*
X138037968Y-78178352D01*
X138037969Y-78178352D01*
X137992370Y-78187422D01*
X137992369Y-78187422D01*
X137983769Y-78189133D01*
X137917448Y-78233448D01*
X137873133Y-78299769D01*
X137871422Y-78308369D01*
X137871422Y-78308370D01*
X137868331Y-78323911D01*
X137861500Y-78358252D01*
X137861500Y-79597748D01*
X137862352Y-79602031D01*
X137866419Y-79622475D01*
X137873133Y-79656231D01*
X137917448Y-79722552D01*
X137983769Y-79766867D01*
X137992369Y-79768578D01*
X137992370Y-79768578D01*
X138018181Y-79773712D01*
X138042252Y-79778500D01*
X138049321Y-79778500D01*
X138050323Y-79778865D01*
X138050975Y-79778929D01*
X138050959Y-79779096D01*
X138106529Y-79799322D01*
X138136969Y-79852045D01*
X138131546Y-79901559D01*
X138098956Y-79980238D01*
X138078318Y-80137000D01*
X138098956Y-80293762D01*
X138101189Y-80299153D01*
X138142376Y-80398586D01*
X138159464Y-80439841D01*
X138255718Y-80565282D01*
X138260347Y-80568834D01*
X138272218Y-80577943D01*
X138381159Y-80661536D01*
X138527238Y-80722044D01*
X138684000Y-80742682D01*
X138840762Y-80722044D01*
X138986841Y-80661536D01*
X139095782Y-80577943D01*
X139107653Y-80568834D01*
X139112282Y-80565282D01*
X139139887Y-80529306D01*
X141069000Y-80529306D01*
X141073376Y-80541329D01*
X141079734Y-80545000D01*
X141553306Y-80545000D01*
X141565329Y-80540624D01*
X141569000Y-80534266D01*
X141569000Y-79985695D01*
X141564624Y-79973672D01*
X141558266Y-79970001D01*
X141441012Y-79970001D01*
X141434068Y-79970548D01*
X141350772Y-79983739D01*
X141337612Y-79988014D01*
X141237193Y-80039180D01*
X141226005Y-80047309D01*
X141146309Y-80127005D01*
X141138180Y-80138193D01*
X141087015Y-80238611D01*
X141082739Y-80251773D01*
X141069547Y-80335068D01*
X141069000Y-80342011D01*
X141069000Y-80529306D01*
X139139887Y-80529306D01*
X139208536Y-80439841D01*
X139225625Y-80398586D01*
X139266811Y-80299153D01*
X139269044Y-80293762D01*
X139289682Y-80137000D01*
X139269044Y-79980238D01*
X139234310Y-79896383D01*
X139231654Y-79835561D01*
X139268715Y-79787262D01*
X139299171Y-79775034D01*
X139315131Y-79771860D01*
X139331630Y-79768578D01*
X139331631Y-79768578D01*
X139340231Y-79766867D01*
X139406552Y-79722552D01*
X139450867Y-79656231D01*
X139457582Y-79622475D01*
X139461648Y-79602031D01*
X139462500Y-79597748D01*
X139462500Y-79210000D01*
X139483322Y-79152792D01*
X139536045Y-79122352D01*
X139551500Y-79121000D01*
X141224000Y-79121000D01*
X141224000Y-79067500D01*
X141244822Y-79010292D01*
X141297545Y-78979852D01*
X141313000Y-78978500D01*
X142079020Y-78978500D01*
X142136228Y-78999322D01*
X142166668Y-79052045D01*
X142168020Y-79067500D01*
X142168020Y-79928192D01*
X142147198Y-79985400D01*
X142094475Y-80015840D01*
X142038615Y-80007492D01*
X142000389Y-79988015D01*
X141987227Y-79983739D01*
X141903932Y-79970547D01*
X141896989Y-79970000D01*
X141784694Y-79970000D01*
X141772671Y-79974376D01*
X141769000Y-79980734D01*
X141769000Y-80656000D01*
X141748178Y-80713208D01*
X141695455Y-80743648D01*
X141680000Y-80745000D01*
X141084695Y-80745000D01*
X141072672Y-80749376D01*
X141069001Y-80755734D01*
X141069001Y-80947988D01*
X141069548Y-80954932D01*
X141082739Y-81038228D01*
X141087014Y-81051388D01*
X141138180Y-81151807D01*
X141146309Y-81162995D01*
X141166881Y-81183567D01*
X141192609Y-81238743D01*
X141176853Y-81297548D01*
X141126983Y-81332467D01*
X141103948Y-81335500D01*
X140944461Y-81335500D01*
X140887253Y-81314678D01*
X140859816Y-81274000D01*
X140857742Y-81267616D01*
X140856646Y-81260696D01*
X140822408Y-81193500D01*
X140802229Y-81153896D01*
X140802227Y-81153893D01*
X140799050Y-81147658D01*
X140709342Y-81057950D01*
X140703107Y-81054773D01*
X140703104Y-81054771D01*
X140642949Y-81024121D01*
X140596304Y-81000354D01*
X140544708Y-80992182D01*
X140505981Y-80986048D01*
X140505977Y-80986048D01*
X140502519Y-80985500D01*
X140499016Y-80985500D01*
X140270636Y-80985501D01*
X140039482Y-80985501D01*
X139945696Y-81000354D01*
X139939455Y-81003534D01*
X139838896Y-81054771D01*
X139838893Y-81054773D01*
X139832658Y-81057950D01*
X139742950Y-81147658D01*
X139739773Y-81153893D01*
X139739771Y-81153896D01*
X139724653Y-81183567D01*
X139685354Y-81260696D01*
X139682912Y-81276114D01*
X139673716Y-81334179D01*
X139670500Y-81354481D01*
X139670501Y-81967518D01*
X139685354Y-82061304D01*
X139694928Y-82080093D01*
X139702348Y-82140519D01*
X139669192Y-82191577D01*
X139615629Y-82209500D01*
X139275811Y-82209500D01*
X139218603Y-82188678D01*
X139188163Y-82135955D01*
X139196511Y-82080095D01*
X139202985Y-82067389D01*
X139207261Y-82054227D01*
X139220453Y-81970932D01*
X139221000Y-81963989D01*
X139221000Y-81776694D01*
X139216624Y-81764671D01*
X139210266Y-81761000D01*
X138036695Y-81761000D01*
X138024672Y-81765376D01*
X138021001Y-81771734D01*
X138021001Y-81963988D01*
X138021548Y-81970932D01*
X138034739Y-82054228D01*
X138039014Y-82067388D01*
X138045489Y-82080095D01*
X138052908Y-82140521D01*
X138019751Y-82191579D01*
X137966189Y-82209500D01*
X136955204Y-82209500D01*
X136897996Y-82188678D01*
X136870004Y-82146224D01*
X136865935Y-82132749D01*
X136837938Y-82080093D01*
X136771261Y-81954691D01*
X136771260Y-81954690D01*
X136769218Y-81950849D01*
X136639011Y-81791200D01*
X136480275Y-81659882D01*
X136299055Y-81561897D01*
X136245458Y-81545306D01*
X138021000Y-81545306D01*
X138025376Y-81557329D01*
X138031734Y-81561000D01*
X138505306Y-81561000D01*
X138517329Y-81556624D01*
X138521000Y-81550266D01*
X138521000Y-81545306D01*
X138721000Y-81545306D01*
X138725376Y-81557329D01*
X138731734Y-81561000D01*
X139205305Y-81561000D01*
X139217328Y-81556624D01*
X139220999Y-81550266D01*
X139220999Y-81358012D01*
X139220452Y-81351068D01*
X139207261Y-81267772D01*
X139202986Y-81254612D01*
X139151820Y-81154193D01*
X139143691Y-81143005D01*
X139063995Y-81063309D01*
X139052807Y-81055180D01*
X138952389Y-81004015D01*
X138939227Y-80999739D01*
X138855932Y-80986547D01*
X138848989Y-80986000D01*
X138736694Y-80986000D01*
X138724671Y-80990376D01*
X138721000Y-80996734D01*
X138721000Y-81545306D01*
X138521000Y-81545306D01*
X138521000Y-81001695D01*
X138516624Y-80989672D01*
X138510266Y-80986001D01*
X138393012Y-80986001D01*
X138386068Y-80986548D01*
X138302772Y-80999739D01*
X138289612Y-81004014D01*
X138189193Y-81055180D01*
X138178005Y-81063309D01*
X138098309Y-81143005D01*
X138090180Y-81154193D01*
X138039015Y-81254611D01*
X138034739Y-81267773D01*
X138021547Y-81351068D01*
X138021000Y-81358011D01*
X138021000Y-81545306D01*
X136245458Y-81545306D01*
X136102254Y-81500977D01*
X135999812Y-81490210D01*
X135901703Y-81479898D01*
X135901698Y-81479898D01*
X135897369Y-81479443D01*
X135692203Y-81498114D01*
X135657985Y-81508185D01*
X135498750Y-81555050D01*
X135498747Y-81555051D01*
X135494572Y-81556280D01*
X135490717Y-81558295D01*
X135490713Y-81558297D01*
X135414823Y-81597972D01*
X135312002Y-81651726D01*
X135151447Y-81780815D01*
X135019024Y-81938630D01*
X135016925Y-81942448D01*
X134987491Y-81995988D01*
X134941684Y-82036089D01*
X134880818Y-82037364D01*
X134833372Y-81999216D01*
X134820500Y-81953112D01*
X134820500Y-80579061D01*
X134841322Y-80521853D01*
X134894045Y-80491413D01*
X134954000Y-80501985D01*
X134988658Y-80538379D01*
X135001143Y-80562671D01*
X135005840Y-80569960D01*
X135128334Y-80724510D01*
X135134352Y-80730741D01*
X135284542Y-80858563D01*
X135291644Y-80863499D01*
X135463801Y-80959715D01*
X135471738Y-80963182D01*
X135659291Y-81024121D01*
X135667764Y-81025984D01*
X135774419Y-81038702D01*
X135786872Y-81035781D01*
X135790000Y-81031600D01*
X135790000Y-81024761D01*
X135990000Y-81024761D01*
X135994376Y-81036784D01*
X135999472Y-81039726D01*
X136068877Y-81034386D01*
X136077405Y-81032882D01*
X136267348Y-80979848D01*
X136275430Y-80976714D01*
X136451456Y-80887796D01*
X136458769Y-80883155D01*
X136614177Y-80761737D01*
X136620446Y-80755768D01*
X136749312Y-80606475D01*
X136754302Y-80599402D01*
X136851716Y-80427922D01*
X136855237Y-80420014D01*
X136917487Y-80232887D01*
X136919408Y-80224428D01*
X136933792Y-80110570D01*
X136930958Y-80098095D01*
X136926881Y-80095000D01*
X136005694Y-80095000D01*
X135993671Y-80099376D01*
X135990000Y-80105734D01*
X135990000Y-81024761D01*
X135790000Y-81024761D01*
X135790000Y-79879306D01*
X135990000Y-79879306D01*
X135994376Y-79891329D01*
X136000734Y-79895000D01*
X136919582Y-79895000D01*
X136931605Y-79890624D01*
X136934376Y-79885824D01*
X136925412Y-79794404D01*
X136923727Y-79785894D01*
X136866731Y-79597113D01*
X136863425Y-79589091D01*
X136770844Y-79414974D01*
X136766045Y-79407750D01*
X136641407Y-79254928D01*
X136635304Y-79248782D01*
X136483347Y-79123072D01*
X136476164Y-79118227D01*
X136302694Y-79024433D01*
X136294698Y-79021072D01*
X136106313Y-78962757D01*
X136097819Y-78961013D01*
X136005607Y-78951321D01*
X135993194Y-78954416D01*
X135990000Y-78958812D01*
X135990000Y-79879306D01*
X135790000Y-79879306D01*
X135790000Y-78965410D01*
X135785624Y-78953387D01*
X135780728Y-78950560D01*
X135696635Y-78958212D01*
X135688120Y-78959837D01*
X135498929Y-79015519D01*
X135490906Y-79018761D01*
X135316137Y-79110128D01*
X135308882Y-79114875D01*
X135155190Y-79238447D01*
X135149002Y-79244507D01*
X135022237Y-79395578D01*
X135017339Y-79402731D01*
X134987491Y-79457026D01*
X134941685Y-79497127D01*
X134880819Y-79498402D01*
X134833373Y-79460255D01*
X134820500Y-79414150D01*
X134820500Y-78040154D01*
X134841322Y-77982946D01*
X134894045Y-77952506D01*
X134954000Y-77963078D01*
X134988658Y-77999472D01*
X135002712Y-78026818D01*
X135005418Y-78030232D01*
X135122141Y-78177500D01*
X135130677Y-78188270D01*
X135287564Y-78321791D01*
X135291356Y-78323910D01*
X135291357Y-78323911D01*
X135463602Y-78420176D01*
X135463606Y-78420178D01*
X135467398Y-78422297D01*
X135471529Y-78423639D01*
X135471533Y-78423641D01*
X135659189Y-78484614D01*
X135659191Y-78484614D01*
X135663329Y-78485959D01*
X135867894Y-78510351D01*
X135872223Y-78510018D01*
X135872227Y-78510018D01*
X136068964Y-78494880D01*
X136068968Y-78494879D01*
X136073300Y-78494546D01*
X136077488Y-78493377D01*
X136077492Y-78493376D01*
X136195146Y-78460526D01*
X136271725Y-78439145D01*
X136275608Y-78437184D01*
X136275612Y-78437182D01*
X136364652Y-78392204D01*
X136455610Y-78346258D01*
X136515114Y-78299769D01*
X136614519Y-78222106D01*
X136614523Y-78222102D01*
X136617951Y-78219424D01*
X136702968Y-78120930D01*
X136749722Y-78066765D01*
X136749724Y-78066762D01*
X136752564Y-78063472D01*
X136754710Y-78059694D01*
X136754713Y-78059690D01*
X136852175Y-77888125D01*
X136854323Y-77884344D01*
X136865416Y-77850999D01*
X136894920Y-77762306D01*
X136919351Y-77688863D01*
X136931419Y-77593331D01*
X137862000Y-77593331D01*
X137862852Y-77601981D01*
X137871895Y-77647442D01*
X137878472Y-77663321D01*
X137912937Y-77714902D01*
X137925098Y-77727063D01*
X137976679Y-77761528D01*
X137992558Y-77768105D01*
X138038019Y-77777148D01*
X138046669Y-77778000D01*
X138546306Y-77778000D01*
X138558329Y-77773624D01*
X138562000Y-77767266D01*
X138562000Y-77093694D01*
X138557624Y-77081671D01*
X138551266Y-77078000D01*
X137877694Y-77078000D01*
X137865671Y-77082376D01*
X137862000Y-77088734D01*
X137862000Y-77593331D01*
X136931419Y-77593331D01*
X136945171Y-77484474D01*
X136945583Y-77455000D01*
X136925480Y-77249970D01*
X136865935Y-77052749D01*
X136858711Y-77039162D01*
X136771261Y-76874691D01*
X136771260Y-76874690D01*
X136769218Y-76870849D01*
X136639011Y-76711200D01*
X136480275Y-76579882D01*
X136457909Y-76567789D01*
X136417489Y-76522264D01*
X136415789Y-76461408D01*
X136453604Y-76413697D01*
X136500239Y-76400500D01*
X137773000Y-76400500D01*
X137830208Y-76421322D01*
G37*
%TD.AperFunction*%
%TA.AperFunction,Conductor*%
G36*
X145100208Y-76421322D02*
G01*
X145130648Y-76474045D01*
X145132000Y-76489500D01*
X145132000Y-76735306D01*
X145136376Y-76747329D01*
X145142734Y-76751000D01*
X145942645Y-76751000D01*
X145999853Y-76771822D01*
X146026277Y-76809560D01*
X146026375Y-76809828D01*
X146032734Y-76813500D01*
X146341305Y-76813500D01*
X146353328Y-76809124D01*
X146356999Y-76802766D01*
X146356999Y-76489500D01*
X146377821Y-76432292D01*
X146430544Y-76401852D01*
X146445999Y-76400500D01*
X148005876Y-76400500D01*
X148063084Y-76421322D01*
X148093524Y-76474045D01*
X148082952Y-76534000D01*
X148047109Y-76568372D01*
X148025093Y-76579882D01*
X148012002Y-76586726D01*
X147851447Y-76715815D01*
X147769479Y-76813500D01*
X147724189Y-76867475D01*
X147719024Y-76873630D01*
X147619776Y-77054162D01*
X147618461Y-77058308D01*
X147618460Y-77058310D01*
X147558798Y-77246388D01*
X147558797Y-77246393D01*
X147557484Y-77250532D01*
X147556999Y-77254852D01*
X147556999Y-77254854D01*
X147535005Y-77450937D01*
X147534520Y-77455262D01*
X147534884Y-77459596D01*
X147546841Y-77601981D01*
X147551759Y-77660553D01*
X147608544Y-77858586D01*
X147623872Y-77888412D01*
X147631504Y-77948810D01*
X147607648Y-77992026D01*
X146149630Y-79450044D01*
X146143905Y-79455289D01*
X146113806Y-79480545D01*
X146094258Y-79514405D01*
X146094156Y-79514581D01*
X146089992Y-79521117D01*
X146067446Y-79553316D01*
X146065431Y-79560838D01*
X146062602Y-79566903D01*
X146060307Y-79573209D01*
X146056412Y-79579955D01*
X146055060Y-79587625D01*
X146055059Y-79587627D01*
X146049590Y-79618647D01*
X146047911Y-79626221D01*
X146037736Y-79664193D01*
X146039406Y-79683282D01*
X146041161Y-79703339D01*
X146041500Y-79711096D01*
X146041500Y-79802914D01*
X146020678Y-79860122D01*
X145992906Y-79882213D01*
X145938797Y-79909784D01*
X145928658Y-79914950D01*
X145853086Y-79990522D01*
X145797910Y-80016250D01*
X145739105Y-80000494D01*
X145713079Y-79972091D01*
X145694714Y-79940282D01*
X145664619Y-79915029D01*
X145658894Y-79909784D01*
X145386354Y-79637244D01*
X145360626Y-79582068D01*
X145369328Y-79535227D01*
X145394505Y-79483721D01*
X145394507Y-79483715D01*
X145397536Y-79477518D01*
X145407500Y-79409218D01*
X145407500Y-78167782D01*
X145407027Y-78164568D01*
X145398366Y-78105732D01*
X145398365Y-78105729D01*
X145397358Y-78098888D01*
X145383472Y-78070605D01*
X145376951Y-78010077D01*
X145392754Y-77977203D01*
X145427984Y-77931290D01*
X145431536Y-77926661D01*
X145454102Y-77872182D01*
X145495231Y-77827297D01*
X145555590Y-77819351D01*
X145575412Y-77826282D01*
X145599426Y-77838020D01*
X145612455Y-77842047D01*
X145670631Y-77850534D01*
X145677050Y-77851000D01*
X145741306Y-77851000D01*
X145753329Y-77846624D01*
X145757000Y-77840266D01*
X145757000Y-77835305D01*
X145957000Y-77835305D01*
X145961376Y-77847328D01*
X145967734Y-77850999D01*
X146036926Y-77850999D01*
X146043393Y-77850525D01*
X146102125Y-77841881D01*
X146115175Y-77837826D01*
X146206956Y-77792764D01*
X146218760Y-77784313D01*
X146290684Y-77712263D01*
X146299110Y-77700452D01*
X146344020Y-77608574D01*
X146348047Y-77595545D01*
X146356534Y-77537369D01*
X146357000Y-77530950D01*
X146357000Y-77029194D01*
X146352624Y-77017171D01*
X146346266Y-77013500D01*
X145972694Y-77013500D01*
X145960671Y-77017876D01*
X145957000Y-77024234D01*
X145957000Y-77835305D01*
X145757000Y-77835305D01*
X145757000Y-77029194D01*
X145752624Y-77017171D01*
X145746266Y-77013500D01*
X145396355Y-77013500D01*
X145339147Y-76992678D01*
X145312723Y-76954940D01*
X145312625Y-76954672D01*
X145306266Y-76951000D01*
X145147694Y-76951000D01*
X145135671Y-76955376D01*
X145121428Y-76980045D01*
X145120275Y-76979380D01*
X145106344Y-77009258D01*
X145051169Y-77034989D01*
X145031792Y-77034567D01*
X144912780Y-77018899D01*
X144907000Y-77018138D01*
X144901220Y-77018899D01*
X144901218Y-77018899D01*
X144783116Y-77034447D01*
X144723680Y-77021270D01*
X144686619Y-76972970D01*
X144682500Y-76946208D01*
X144682500Y-76489500D01*
X144703322Y-76432292D01*
X144756045Y-76401852D01*
X144771500Y-76400500D01*
X145043000Y-76400500D01*
X145100208Y-76421322D01*
G37*
%TD.AperFunction*%
%TA.AperFunction,Conductor*%
G36*
X143424708Y-76421322D02*
G01*
X143455148Y-76474045D01*
X143456500Y-76489500D01*
X143456500Y-77534218D01*
X143466642Y-77603112D01*
X143518068Y-77707855D01*
X143523275Y-77713053D01*
X143600650Y-77790293D01*
X143599301Y-77791645D01*
X143628664Y-77834363D01*
X143631500Y-77856652D01*
X143631500Y-79549904D01*
X143631161Y-79557660D01*
X143627736Y-79596807D01*
X143634615Y-79622475D01*
X143637909Y-79634769D01*
X143639590Y-79642353D01*
X143643635Y-79665293D01*
X143646412Y-79681045D01*
X143650307Y-79687791D01*
X143652602Y-79694097D01*
X143655431Y-79700162D01*
X143657446Y-79707684D01*
X143679992Y-79739883D01*
X143684153Y-79746415D01*
X143703806Y-79780455D01*
X143715815Y-79790532D01*
X143733912Y-79805717D01*
X143739625Y-79810951D01*
X143794850Y-79866176D01*
X143820577Y-79921350D01*
X143804821Y-79980155D01*
X143754951Y-80015074D01*
X143691511Y-80008407D01*
X143665712Y-79995262D01*
X143644304Y-79984354D01*
X143602191Y-79977684D01*
X143553981Y-79970048D01*
X143553977Y-79970048D01*
X143550519Y-79969500D01*
X143547016Y-79969500D01*
X143318636Y-79969501D01*
X143087482Y-79969501D01*
X142993696Y-79984354D01*
X142987453Y-79987535D01*
X142948426Y-80007420D01*
X142888000Y-80014840D01*
X142836942Y-79981683D01*
X142819020Y-79928121D01*
X142819020Y-78930892D01*
X142834019Y-78881447D01*
X142845998Y-78863519D01*
X142845999Y-78863516D01*
X142850867Y-78856231D01*
X142862500Y-78797748D01*
X142862500Y-77158252D01*
X142850867Y-77099769D01*
X142806552Y-77033448D01*
X142740231Y-76989133D01*
X142731631Y-76987422D01*
X142731630Y-76987422D01*
X142698493Y-76980831D01*
X142681748Y-76977500D01*
X141313000Y-76977500D01*
X141255792Y-76956678D01*
X141225352Y-76903955D01*
X141224000Y-76888500D01*
X141224000Y-76708000D01*
X139551000Y-76708000D01*
X139493792Y-76687178D01*
X139463352Y-76634455D01*
X139462000Y-76619000D01*
X139462000Y-76489500D01*
X139482822Y-76432292D01*
X139535545Y-76401852D01*
X139551000Y-76400500D01*
X143367500Y-76400500D01*
X143424708Y-76421322D01*
G37*
%TD.AperFunction*%
%TD*%
M02*
