%TF.GenerationSoftware,KiCad,Pcbnew,(6.0.5)*%
%TF.CreationDate,2022-05-26T22:58:08+02:00*%
%TF.ProjectId,STP220_Polulu,53545032-3230-45f5-906f-6c756c752e6b,rev?*%
%TF.SameCoordinates,Original*%
%TF.FileFunction,Legend,Bot*%
%TF.FilePolarity,Positive*%
%FSLAX46Y46*%
G04 Gerber Fmt 4.6, Leading zero omitted, Abs format (unit mm)*
G04 Created by KiCad (PCBNEW (6.0.5)) date 2022-05-26 22:58:08*
%MOMM*%
%LPD*%
G01*
G04 APERTURE LIST*
%ADD10C,0.150000*%
%ADD11C,0.100000*%
%ADD12C,0.120000*%
G04 APERTURE END LIST*
D10*
X146253047Y-92779904D02*
X145986380Y-93579904D01*
X145719714Y-92779904D01*
X145034000Y-93579904D02*
X145491142Y-93579904D01*
X145262571Y-93579904D02*
X145262571Y-92779904D01*
X145338761Y-92894190D01*
X145414952Y-92970380D01*
X145491142Y-93008476D01*
X144691142Y-93503714D02*
X144653047Y-93541809D01*
X144691142Y-93579904D01*
X144729238Y-93541809D01*
X144691142Y-93503714D01*
X144691142Y-93579904D01*
X144157809Y-92779904D02*
X144081619Y-92779904D01*
X144005428Y-92818000D01*
X143967333Y-92856095D01*
X143929238Y-92932285D01*
X143891142Y-93084666D01*
X143891142Y-93275142D01*
X143929238Y-93427523D01*
X143967333Y-93503714D01*
X144005428Y-93541809D01*
X144081619Y-93579904D01*
X144157809Y-93579904D01*
X144234000Y-93541809D01*
X144272095Y-93503714D01*
X144310190Y-93427523D01*
X144348285Y-93275142D01*
X144348285Y-93084666D01*
X144310190Y-92932285D01*
X144272095Y-92856095D01*
X144234000Y-92818000D01*
X144157809Y-92779904D01*
X146221190Y-92398809D02*
X146106904Y-92436904D01*
X145916428Y-92436904D01*
X145840238Y-92398809D01*
X145802142Y-92360714D01*
X145764047Y-92284523D01*
X145764047Y-92208333D01*
X145802142Y-92132142D01*
X145840238Y-92094047D01*
X145916428Y-92055952D01*
X146068809Y-92017857D01*
X146145000Y-91979761D01*
X146183095Y-91941666D01*
X146221190Y-91865476D01*
X146221190Y-91789285D01*
X146183095Y-91713095D01*
X146145000Y-91675000D01*
X146068809Y-91636904D01*
X145878333Y-91636904D01*
X145764047Y-91675000D01*
X145535476Y-91636904D02*
X145078333Y-91636904D01*
X145306904Y-92436904D02*
X145306904Y-91636904D01*
X144811666Y-92436904D02*
X144811666Y-91636904D01*
X144506904Y-91636904D01*
X144430714Y-91675000D01*
X144392619Y-91713095D01*
X144354523Y-91789285D01*
X144354523Y-91903571D01*
X144392619Y-91979761D01*
X144430714Y-92017857D01*
X144506904Y-92055952D01*
X144811666Y-92055952D01*
X144049761Y-91713095D02*
X144011666Y-91675000D01*
X143935476Y-91636904D01*
X143745000Y-91636904D01*
X143668809Y-91675000D01*
X143630714Y-91713095D01*
X143592619Y-91789285D01*
X143592619Y-91865476D01*
X143630714Y-91979761D01*
X144087857Y-92436904D01*
X143592619Y-92436904D01*
X143287857Y-91713095D02*
X143249761Y-91675000D01*
X143173571Y-91636904D01*
X142983095Y-91636904D01*
X142906904Y-91675000D01*
X142868809Y-91713095D01*
X142830714Y-91789285D01*
X142830714Y-91865476D01*
X142868809Y-91979761D01*
X143325952Y-92436904D01*
X142830714Y-92436904D01*
X142335476Y-91636904D02*
X142259285Y-91636904D01*
X142183095Y-91675000D01*
X142145000Y-91713095D01*
X142106904Y-91789285D01*
X142068809Y-91941666D01*
X142068809Y-92132142D01*
X142106904Y-92284523D01*
X142145000Y-92360714D01*
X142183095Y-92398809D01*
X142259285Y-92436904D01*
X142335476Y-92436904D01*
X142411666Y-92398809D01*
X142449761Y-92360714D01*
X142487857Y-92284523D01*
X142525952Y-92132142D01*
X142525952Y-91941666D01*
X142487857Y-91789285D01*
X142449761Y-91713095D01*
X142411666Y-91675000D01*
X142335476Y-91636904D01*
D11*
%TO.C,R7*%
X139562666Y-88708666D02*
X139796000Y-88375333D01*
X139962666Y-88708666D02*
X139962666Y-88008666D01*
X139696000Y-88008666D01*
X139629333Y-88042000D01*
X139596000Y-88075333D01*
X139562666Y-88142000D01*
X139562666Y-88242000D01*
X139596000Y-88308666D01*
X139629333Y-88342000D01*
X139696000Y-88375333D01*
X139962666Y-88375333D01*
X139329333Y-88008666D02*
X138862666Y-88008666D01*
X139162666Y-88708666D01*
%TO.C,R4*%
X139562666Y-80961666D02*
X139796000Y-80628333D01*
X139962666Y-80961666D02*
X139962666Y-80261666D01*
X139696000Y-80261666D01*
X139629333Y-80295000D01*
X139596000Y-80328333D01*
X139562666Y-80395000D01*
X139562666Y-80495000D01*
X139596000Y-80561666D01*
X139629333Y-80595000D01*
X139696000Y-80628333D01*
X139962666Y-80628333D01*
X138962666Y-80495000D02*
X138962666Y-80961666D01*
X139129333Y-80228333D02*
X139296000Y-80728333D01*
X138862666Y-80728333D01*
%TO.C,R6*%
X137657666Y-84517666D02*
X137891000Y-84184333D01*
X138057666Y-84517666D02*
X138057666Y-83817666D01*
X137791000Y-83817666D01*
X137724333Y-83851000D01*
X137691000Y-83884333D01*
X137657666Y-83951000D01*
X137657666Y-84051000D01*
X137691000Y-84117666D01*
X137724333Y-84151000D01*
X137791000Y-84184333D01*
X138057666Y-84184333D01*
X137057666Y-83817666D02*
X137191000Y-83817666D01*
X137257666Y-83851000D01*
X137291000Y-83884333D01*
X137357666Y-83984333D01*
X137391000Y-84117666D01*
X137391000Y-84384333D01*
X137357666Y-84451000D01*
X137324333Y-84484333D01*
X137257666Y-84517666D01*
X137124333Y-84517666D01*
X137057666Y-84484333D01*
X137024333Y-84451000D01*
X136991000Y-84384333D01*
X136991000Y-84217666D01*
X137024333Y-84151000D01*
X137057666Y-84117666D01*
X137124333Y-84084333D01*
X137257666Y-84084333D01*
X137324333Y-84117666D01*
X137357666Y-84151000D01*
X137391000Y-84217666D01*
%TO.C,R10*%
X146500000Y-84898666D02*
X146733333Y-84565333D01*
X146900000Y-84898666D02*
X146900000Y-84198666D01*
X146633333Y-84198666D01*
X146566666Y-84232000D01*
X146533333Y-84265333D01*
X146500000Y-84332000D01*
X146500000Y-84432000D01*
X146533333Y-84498666D01*
X146566666Y-84532000D01*
X146633333Y-84565333D01*
X146900000Y-84565333D01*
X145833333Y-84898666D02*
X146233333Y-84898666D01*
X146033333Y-84898666D02*
X146033333Y-84198666D01*
X146100000Y-84298666D01*
X146166666Y-84365333D01*
X146233333Y-84398666D01*
X145400000Y-84198666D02*
X145333333Y-84198666D01*
X145266666Y-84232000D01*
X145233333Y-84265333D01*
X145200000Y-84332000D01*
X145166666Y-84465333D01*
X145166666Y-84632000D01*
X145200000Y-84765333D01*
X145233333Y-84832000D01*
X145266666Y-84865333D01*
X145333333Y-84898666D01*
X145400000Y-84898666D01*
X145466666Y-84865333D01*
X145500000Y-84832000D01*
X145533333Y-84765333D01*
X145566666Y-84632000D01*
X145566666Y-84465333D01*
X145533333Y-84332000D01*
X145500000Y-84265333D01*
X145466666Y-84232000D01*
X145400000Y-84198666D01*
%TO.C,R3*%
X147382666Y-90180333D02*
X147049333Y-89947000D01*
X147382666Y-89780333D02*
X146682666Y-89780333D01*
X146682666Y-90047000D01*
X146716000Y-90113666D01*
X146749333Y-90147000D01*
X146816000Y-90180333D01*
X146916000Y-90180333D01*
X146982666Y-90147000D01*
X147016000Y-90113666D01*
X147049333Y-90047000D01*
X147049333Y-89780333D01*
X146682666Y-90413666D02*
X146682666Y-90847000D01*
X146949333Y-90613666D01*
X146949333Y-90713666D01*
X146982666Y-90780333D01*
X147016000Y-90813666D01*
X147082666Y-90847000D01*
X147249333Y-90847000D01*
X147316000Y-90813666D01*
X147349333Y-90780333D01*
X147382666Y-90713666D01*
X147382666Y-90513666D01*
X147349333Y-90447000D01*
X147316000Y-90413666D01*
%TO.C,R1*%
X146547666Y-79945666D02*
X146781000Y-79612333D01*
X146947666Y-79945666D02*
X146947666Y-79245666D01*
X146681000Y-79245666D01*
X146614333Y-79279000D01*
X146581000Y-79312333D01*
X146547666Y-79379000D01*
X146547666Y-79479000D01*
X146581000Y-79545666D01*
X146614333Y-79579000D01*
X146681000Y-79612333D01*
X146947666Y-79612333D01*
X145881000Y-79945666D02*
X146281000Y-79945666D01*
X146081000Y-79945666D02*
X146081000Y-79245666D01*
X146147666Y-79345666D01*
X146214333Y-79412333D01*
X146281000Y-79445666D01*
%TO.C,U1*%
X143789333Y-88389666D02*
X143789333Y-88956333D01*
X143756000Y-89023000D01*
X143722666Y-89056333D01*
X143656000Y-89089666D01*
X143522666Y-89089666D01*
X143456000Y-89056333D01*
X143422666Y-89023000D01*
X143389333Y-88956333D01*
X143389333Y-88389666D01*
X142689333Y-89089666D02*
X143089333Y-89089666D01*
X142889333Y-89089666D02*
X142889333Y-88389666D01*
X142956000Y-88489666D01*
X143022666Y-88556333D01*
X143089333Y-88589666D01*
%TO.C,R8*%
X147563666Y-81723666D02*
X147797000Y-81390333D01*
X147963666Y-81723666D02*
X147963666Y-81023666D01*
X147697000Y-81023666D01*
X147630333Y-81057000D01*
X147597000Y-81090333D01*
X147563666Y-81157000D01*
X147563666Y-81257000D01*
X147597000Y-81323666D01*
X147630333Y-81357000D01*
X147697000Y-81390333D01*
X147963666Y-81390333D01*
X147163666Y-81323666D02*
X147230333Y-81290333D01*
X147263666Y-81257000D01*
X147297000Y-81190333D01*
X147297000Y-81157000D01*
X147263666Y-81090333D01*
X147230333Y-81057000D01*
X147163666Y-81023666D01*
X147030333Y-81023666D01*
X146963666Y-81057000D01*
X146930333Y-81090333D01*
X146897000Y-81157000D01*
X146897000Y-81190333D01*
X146930333Y-81257000D01*
X146963666Y-81290333D01*
X147030333Y-81323666D01*
X147163666Y-81323666D01*
X147230333Y-81357000D01*
X147263666Y-81390333D01*
X147297000Y-81457000D01*
X147297000Y-81590333D01*
X147263666Y-81657000D01*
X147230333Y-81690333D01*
X147163666Y-81723666D01*
X147030333Y-81723666D01*
X146963666Y-81690333D01*
X146930333Y-81657000D01*
X146897000Y-81590333D01*
X146897000Y-81457000D01*
X146930333Y-81390333D01*
X146963666Y-81357000D01*
X147030333Y-81323666D01*
%TO.C,Q1*%
X147005666Y-77091333D02*
X147072333Y-77058000D01*
X147139000Y-76991333D01*
X147239000Y-76891333D01*
X147305666Y-76858000D01*
X147372333Y-76858000D01*
X147339000Y-77024666D02*
X147405666Y-76991333D01*
X147472333Y-76924666D01*
X147505666Y-76791333D01*
X147505666Y-76558000D01*
X147472333Y-76424666D01*
X147405666Y-76358000D01*
X147339000Y-76324666D01*
X147205666Y-76324666D01*
X147139000Y-76358000D01*
X147072333Y-76424666D01*
X147039000Y-76558000D01*
X147039000Y-76791333D01*
X147072333Y-76924666D01*
X147139000Y-76991333D01*
X147205666Y-77024666D01*
X147339000Y-77024666D01*
X146372333Y-77024666D02*
X146772333Y-77024666D01*
X146572333Y-77024666D02*
X146572333Y-76324666D01*
X146639000Y-76424666D01*
X146705666Y-76491333D01*
X146772333Y-76524666D01*
%TO.C,RV1*%
X140624666Y-78294666D02*
X140858000Y-77961333D01*
X141024666Y-78294666D02*
X141024666Y-77594666D01*
X140758000Y-77594666D01*
X140691333Y-77628000D01*
X140658000Y-77661333D01*
X140624666Y-77728000D01*
X140624666Y-77828000D01*
X140658000Y-77894666D01*
X140691333Y-77928000D01*
X140758000Y-77961333D01*
X141024666Y-77961333D01*
X140424666Y-77594666D02*
X140191333Y-78294666D01*
X139958000Y-77594666D01*
X139358000Y-78294666D02*
X139758000Y-78294666D01*
X139558000Y-78294666D02*
X139558000Y-77594666D01*
X139624666Y-77694666D01*
X139691333Y-77761333D01*
X139758000Y-77794666D01*
%TO.C,C1*%
X142610666Y-83562000D02*
X142644000Y-83595333D01*
X142744000Y-83628666D01*
X142810666Y-83628666D01*
X142910666Y-83595333D01*
X142977333Y-83528666D01*
X143010666Y-83462000D01*
X143044000Y-83328666D01*
X143044000Y-83228666D01*
X143010666Y-83095333D01*
X142977333Y-83028666D01*
X142910666Y-82962000D01*
X142810666Y-82928666D01*
X142744000Y-82928666D01*
X142644000Y-82962000D01*
X142610666Y-82995333D01*
X141944000Y-83628666D02*
X142344000Y-83628666D01*
X142144000Y-83628666D02*
X142144000Y-82928666D01*
X142210666Y-83028666D01*
X142277333Y-83095333D01*
X142344000Y-83128666D01*
%TO.C,R5*%
X143499666Y-80072666D02*
X143733000Y-79739333D01*
X143899666Y-80072666D02*
X143899666Y-79372666D01*
X143633000Y-79372666D01*
X143566333Y-79406000D01*
X143533000Y-79439333D01*
X143499666Y-79506000D01*
X143499666Y-79606000D01*
X143533000Y-79672666D01*
X143566333Y-79706000D01*
X143633000Y-79739333D01*
X143899666Y-79739333D01*
X142866333Y-79372666D02*
X143199666Y-79372666D01*
X143233000Y-79706000D01*
X143199666Y-79672666D01*
X143133000Y-79639333D01*
X142966333Y-79639333D01*
X142899666Y-79672666D01*
X142866333Y-79706000D01*
X142833000Y-79772666D01*
X142833000Y-79939333D01*
X142866333Y-80006000D01*
X142899666Y-80039333D01*
X142966333Y-80072666D01*
X143133000Y-80072666D01*
X143199666Y-80039333D01*
X143233000Y-80006000D01*
%TO.C,R2*%
X143699666Y-90307333D02*
X143366333Y-90074000D01*
X143699666Y-89907333D02*
X142999666Y-89907333D01*
X142999666Y-90174000D01*
X143033000Y-90240666D01*
X143066333Y-90274000D01*
X143133000Y-90307333D01*
X143233000Y-90307333D01*
X143299666Y-90274000D01*
X143333000Y-90240666D01*
X143366333Y-90174000D01*
X143366333Y-89907333D01*
X143066333Y-90574000D02*
X143033000Y-90607333D01*
X142999666Y-90674000D01*
X142999666Y-90840666D01*
X143033000Y-90907333D01*
X143066333Y-90940666D01*
X143133000Y-90974000D01*
X143199666Y-90974000D01*
X143299666Y-90940666D01*
X143699666Y-90540666D01*
X143699666Y-90974000D01*
%TO.C,C2*%
X138045000Y-86243333D02*
X138078333Y-86210000D01*
X138111666Y-86110000D01*
X138111666Y-86043333D01*
X138078333Y-85943333D01*
X138011666Y-85876666D01*
X137945000Y-85843333D01*
X137811666Y-85810000D01*
X137711666Y-85810000D01*
X137578333Y-85843333D01*
X137511666Y-85876666D01*
X137445000Y-85943333D01*
X137411666Y-86043333D01*
X137411666Y-86110000D01*
X137445000Y-86210000D01*
X137478333Y-86243333D01*
X137478333Y-86510000D02*
X137445000Y-86543333D01*
X137411666Y-86610000D01*
X137411666Y-86776666D01*
X137445000Y-86843333D01*
X137478333Y-86876666D01*
X137545000Y-86910000D01*
X137611666Y-86910000D01*
X137711666Y-86876666D01*
X138111666Y-86476666D01*
X138111666Y-86910000D01*
%TO.C,R9*%
X147382666Y-86878333D02*
X147049333Y-86645000D01*
X147382666Y-86478333D02*
X146682666Y-86478333D01*
X146682666Y-86745000D01*
X146716000Y-86811666D01*
X146749333Y-86845000D01*
X146816000Y-86878333D01*
X146916000Y-86878333D01*
X146982666Y-86845000D01*
X147016000Y-86811666D01*
X147049333Y-86745000D01*
X147049333Y-86478333D01*
X147382666Y-87211666D02*
X147382666Y-87345000D01*
X147349333Y-87411666D01*
X147316000Y-87445000D01*
X147216000Y-87511666D01*
X147082666Y-87545000D01*
X146816000Y-87545000D01*
X146749333Y-87511666D01*
X146716000Y-87478333D01*
X146682666Y-87411666D01*
X146682666Y-87278333D01*
X146716000Y-87211666D01*
X146749333Y-87178333D01*
X146816000Y-87145000D01*
X146982666Y-87145000D01*
X147049333Y-87178333D01*
X147082666Y-87211666D01*
X147116000Y-87278333D01*
X147116000Y-87411666D01*
X147082666Y-87478333D01*
X147049333Y-87511666D01*
X146982666Y-87545000D01*
%TO.C,G\u002A\u002A\u002A*%
G36*
X142246216Y-94683389D02*
G01*
X142239021Y-94680777D01*
X142183979Y-94661964D01*
X142151645Y-94655000D01*
X142134676Y-94659340D01*
X142125727Y-94674437D01*
X142127037Y-94705553D01*
X142150281Y-94744083D01*
X142177993Y-94779516D01*
X142197442Y-94814737D01*
X142199460Y-94818220D01*
X142206806Y-94824848D01*
X142220696Y-94833423D01*
X142242780Y-94844569D01*
X142274702Y-94858909D01*
X142318108Y-94877068D01*
X142374645Y-94899671D01*
X142445960Y-94927341D01*
X142533698Y-94960702D01*
X142639506Y-95000378D01*
X142765030Y-95046995D01*
X142911916Y-95101176D01*
X143081812Y-95163544D01*
X143276363Y-95234725D01*
X143497215Y-95315342D01*
X143746015Y-95406019D01*
X144024410Y-95507381D01*
X144206980Y-95573818D01*
X144466231Y-95668090D01*
X144697022Y-95751900D01*
X144901019Y-95825830D01*
X145079889Y-95890463D01*
X145235301Y-95946378D01*
X145368922Y-95994161D01*
X145482419Y-96034390D01*
X145577460Y-96067649D01*
X145655712Y-96094518D01*
X145718843Y-96115581D01*
X145768518Y-96131420D01*
X145806408Y-96142614D01*
X145834178Y-96149747D01*
X145853495Y-96153400D01*
X145866029Y-96154155D01*
X145873446Y-96152595D01*
X145874808Y-96151920D01*
X145885757Y-96143159D01*
X145898149Y-96125938D01*
X145913361Y-96096989D01*
X145932766Y-96053047D01*
X145957737Y-95990842D01*
X145989649Y-95907110D01*
X146029875Y-95798582D01*
X146079790Y-95661993D01*
X146252676Y-95186993D01*
X146080963Y-95124495D01*
X146137780Y-94968391D01*
X146309493Y-95030890D01*
X146369150Y-94866981D01*
X146388711Y-94814706D01*
X146411540Y-94757758D01*
X146428781Y-94719523D01*
X146437736Y-94706323D01*
X146444684Y-94711983D01*
X146468471Y-94737256D01*
X146501044Y-94775240D01*
X146555424Y-94840908D01*
X146465596Y-95087707D01*
X146590479Y-95133160D01*
X146533661Y-95289264D01*
X146408779Y-95243810D01*
X146222474Y-95754964D01*
X146203839Y-95806073D01*
X146152944Y-95944957D01*
X146111154Y-96056641D01*
X146076799Y-96144179D01*
X146048211Y-96210627D01*
X146023724Y-96259038D01*
X146001668Y-96292468D01*
X145980377Y-96313971D01*
X145958182Y-96326601D01*
X145933414Y-96333413D01*
X145904406Y-96337463D01*
X145898798Y-96337941D01*
X145886245Y-96337799D01*
X145869831Y-96335768D01*
X145847845Y-96331259D01*
X145818578Y-96323674D01*
X145780322Y-96312422D01*
X145731366Y-96296909D01*
X145670001Y-96276539D01*
X145594517Y-96250721D01*
X145503206Y-96218860D01*
X145394358Y-96180362D01*
X145266262Y-96134634D01*
X145117213Y-96081080D01*
X144945496Y-96019109D01*
X144749406Y-95948127D01*
X144527233Y-95867538D01*
X144277265Y-95776750D01*
X143997795Y-95675168D01*
X142155537Y-95005387D01*
X142084676Y-95031913D01*
X142074279Y-95035692D01*
X142028021Y-95047236D01*
X141984161Y-95044431D01*
X141926779Y-95026759D01*
X141914130Y-95022065D01*
X141863571Y-94998963D01*
X141830542Y-94971291D01*
X141802511Y-94929213D01*
X141765278Y-94863344D01*
X137566100Y-93334968D01*
X137495239Y-93361494D01*
X137484843Y-93365274D01*
X137438583Y-93376817D01*
X137394725Y-93374012D01*
X137337342Y-93356341D01*
X137324694Y-93351647D01*
X137274134Y-93328544D01*
X137241106Y-93300873D01*
X137213074Y-93258795D01*
X137205694Y-93246132D01*
X137178017Y-93209128D01*
X137142266Y-93183455D01*
X137086313Y-93159622D01*
X136996784Y-93126318D01*
X137053601Y-92970214D01*
X137145352Y-93003609D01*
X137178528Y-93014795D01*
X137232703Y-93026048D01*
X137266287Y-93019943D01*
X137300743Y-93006364D01*
X137311541Y-93004018D01*
X137536291Y-93004018D01*
X137537601Y-93035135D01*
X137560844Y-93073664D01*
X137588555Y-93109097D01*
X137608006Y-93144319D01*
X137611509Y-93149325D01*
X137620355Y-93156133D01*
X137635976Y-93165035D01*
X137659901Y-93176607D01*
X137693659Y-93191425D01*
X137738780Y-93210066D01*
X137796791Y-93233107D01*
X137869222Y-93261123D01*
X137957601Y-93294692D01*
X138063458Y-93334389D01*
X138188321Y-93380792D01*
X138333719Y-93434477D01*
X138501182Y-93496020D01*
X138692238Y-93565997D01*
X138908415Y-93644986D01*
X139151243Y-93733563D01*
X139422251Y-93832303D01*
X139722967Y-93941784D01*
X140006519Y-94044963D01*
X140279328Y-94144161D01*
X140523924Y-94232998D01*
X140741849Y-94312017D01*
X140934645Y-94381758D01*
X141103853Y-94442763D01*
X141251016Y-94495573D01*
X141377674Y-94540729D01*
X141485371Y-94578772D01*
X141575646Y-94610243D01*
X141650043Y-94635682D01*
X141710104Y-94655633D01*
X141757368Y-94670635D01*
X141793379Y-94681231D01*
X141819679Y-94687960D01*
X141837808Y-94691363D01*
X141849309Y-94691983D01*
X141855724Y-94690362D01*
X141890180Y-94676782D01*
X141937267Y-94666552D01*
X141976269Y-94654087D01*
X142000844Y-94628983D01*
X142001561Y-94626946D01*
X142003350Y-94610142D01*
X141991469Y-94595983D01*
X141959941Y-94580167D01*
X141902789Y-94558392D01*
X141793517Y-94518620D01*
X141806907Y-94481832D01*
X142178151Y-94481832D01*
X142287423Y-94521604D01*
X142526054Y-93865970D01*
X142471419Y-93846084D01*
X142461787Y-93842753D01*
X142424785Y-93836716D01*
X142407847Y-93850747D01*
X142402120Y-93861328D01*
X142390378Y-93857746D01*
X142369557Y-93827971D01*
X142344334Y-93794700D01*
X142299777Y-93767565D01*
X142237930Y-93763565D01*
X142207925Y-93768217D01*
X142196796Y-93783233D01*
X142199195Y-93819697D01*
X142203497Y-93843583D01*
X142219358Y-93868950D01*
X142254904Y-93879730D01*
X142268577Y-93882408D01*
X142303236Y-93900879D01*
X142329320Y-93941851D01*
X142336579Y-93958154D01*
X142342580Y-93978487D01*
X142343092Y-94001932D01*
X142336924Y-94034105D01*
X142322890Y-94080622D01*
X142299803Y-94147102D01*
X142266476Y-94239162D01*
X142178151Y-94481832D01*
X141806907Y-94481832D01*
X142145783Y-93550779D01*
X142262860Y-93593392D01*
X142305420Y-93608341D01*
X142351766Y-93621584D01*
X142377423Y-93622826D01*
X142388314Y-93612991D01*
X142388484Y-93612490D01*
X142383527Y-93584894D01*
X142360919Y-93551151D01*
X142333207Y-93515718D01*
X142313757Y-93480496D01*
X142312469Y-93477587D01*
X142304406Y-93467980D01*
X142287974Y-93456595D01*
X142260307Y-93442260D01*
X142218542Y-93423802D01*
X142159808Y-93400049D01*
X142081243Y-93369830D01*
X141979980Y-93331973D01*
X141853152Y-93285306D01*
X141697895Y-93228657D01*
X141639083Y-93207258D01*
X141496138Y-93155361D01*
X141380191Y-93113591D01*
X141288157Y-93080992D01*
X141216950Y-93056609D01*
X141163487Y-93039486D01*
X141124679Y-93028666D01*
X141097444Y-93023195D01*
X141078693Y-93022117D01*
X141065344Y-93024477D01*
X141054311Y-93029317D01*
X141022435Y-93042009D01*
X140982668Y-93048628D01*
X140975084Y-93049100D01*
X140965303Y-93053923D01*
X140954528Y-93066605D01*
X140941295Y-93090488D01*
X140924138Y-93128916D01*
X140901590Y-93185230D01*
X140872185Y-93262776D01*
X140834458Y-93364895D01*
X140786942Y-93494931D01*
X140780319Y-93513081D01*
X140728199Y-93654365D01*
X140685529Y-93766762D01*
X140651345Y-93852621D01*
X140624680Y-93914299D01*
X140604567Y-93954148D01*
X140590041Y-93974521D01*
X140569808Y-93989606D01*
X140507536Y-94010692D01*
X140431077Y-94011991D01*
X140349657Y-93992799D01*
X140331657Y-93986042D01*
X140279409Y-93962027D01*
X140254946Y-93937690D01*
X140254631Y-93906704D01*
X140274823Y-93862746D01*
X140286245Y-93842651D01*
X140306692Y-93816067D01*
X140329854Y-93811312D01*
X140368232Y-93823076D01*
X140382162Y-93828103D01*
X140410870Y-93836846D01*
X140435040Y-93838645D01*
X140456662Y-93830468D01*
X140477725Y-93809278D01*
X140500217Y-93772044D01*
X140526128Y-93715728D01*
X140557446Y-93637299D01*
X140596160Y-93533720D01*
X140644258Y-93401960D01*
X140662040Y-93353068D01*
X140703170Y-93239361D01*
X140734233Y-93151814D01*
X140756285Y-93086762D01*
X140770378Y-93040537D01*
X140777566Y-93009473D01*
X140778904Y-92989903D01*
X140775444Y-92978162D01*
X140768241Y-92970583D01*
X140748290Y-92948917D01*
X140725772Y-92909739D01*
X140724514Y-92906753D01*
X140717942Y-92895115D01*
X140706766Y-92883749D01*
X140687656Y-92871214D01*
X140657279Y-92856067D01*
X140612304Y-92836865D01*
X140549399Y-92812168D01*
X140465233Y-92780532D01*
X140356474Y-92740514D01*
X140219791Y-92690672D01*
X139730485Y-92512579D01*
X139745358Y-92471716D01*
X139746535Y-92468103D01*
X139746035Y-92417410D01*
X139721684Y-92348191D01*
X139721137Y-92347017D01*
X139704456Y-92310962D01*
X139690104Y-92282683D01*
X139676814Y-92264303D01*
X139663329Y-92257948D01*
X139648383Y-92265742D01*
X139630715Y-92289810D01*
X139609062Y-92332277D01*
X139582162Y-92395269D01*
X139548753Y-92480910D01*
X139507571Y-92591324D01*
X139457356Y-92728637D01*
X139396844Y-92894975D01*
X139161054Y-93542803D01*
X139004950Y-93485986D01*
X139243581Y-92830353D01*
X139270852Y-92755250D01*
X139319473Y-92620431D01*
X139363430Y-92497357D01*
X139401589Y-92389271D01*
X139432821Y-92299412D01*
X139455993Y-92231019D01*
X139469973Y-92187334D01*
X139473632Y-92171596D01*
X139473336Y-92171501D01*
X139451509Y-92171417D01*
X139412537Y-92175241D01*
X139366320Y-92186396D01*
X139306226Y-92213888D01*
X139256797Y-92249763D01*
X139229113Y-92287255D01*
X139215344Y-92325083D01*
X138655284Y-92121238D01*
X138514222Y-92070032D01*
X138391583Y-92025929D01*
X138294120Y-91991532D01*
X138218761Y-91965867D01*
X138162436Y-91947961D01*
X138122071Y-91936839D01*
X138094598Y-91931531D01*
X138076944Y-91931060D01*
X138066039Y-91934453D01*
X138031583Y-91948032D01*
X137984495Y-91958263D01*
X137958682Y-91962773D01*
X137926022Y-91977260D01*
X137925133Y-91997126D01*
X137955560Y-92021116D01*
X138016850Y-92047971D01*
X138118317Y-92084902D01*
X137822869Y-92896639D01*
X137766052Y-93052743D01*
X137656780Y-93012971D01*
X137649585Y-93010359D01*
X137594542Y-92991545D01*
X137562208Y-92984582D01*
X137545239Y-92988921D01*
X137536291Y-93004018D01*
X137311541Y-93004018D01*
X137347831Y-92996134D01*
X137386833Y-92983669D01*
X137411407Y-92958565D01*
X137412125Y-92956528D01*
X137413913Y-92939724D01*
X137402031Y-92925565D01*
X137370503Y-92909749D01*
X137313352Y-92887974D01*
X137204080Y-92848202D01*
X137462682Y-92137699D01*
X137571642Y-92137699D01*
X137577375Y-92178566D01*
X137580169Y-92187290D01*
X137596048Y-92207926D01*
X137628988Y-92208591D01*
X137669836Y-92210831D01*
X137711476Y-92240274D01*
X137739110Y-92299803D01*
X137743517Y-92319882D01*
X137744552Y-92346388D01*
X137739299Y-92380050D01*
X137726341Y-92426827D01*
X137704261Y-92492680D01*
X137671643Y-92583572D01*
X137588715Y-92811414D01*
X137697987Y-92851186D01*
X137936618Y-92195552D01*
X137881981Y-92175666D01*
X137872350Y-92172335D01*
X137835348Y-92166297D01*
X137818411Y-92180329D01*
X137812684Y-92190910D01*
X137800942Y-92187328D01*
X137780120Y-92157553D01*
X137765474Y-92135541D01*
X137737829Y-92108697D01*
X137701438Y-92098929D01*
X137644463Y-92101330D01*
X137630475Y-92102891D01*
X137587679Y-92114387D01*
X137571642Y-92137699D01*
X137462682Y-92137699D01*
X137556346Y-91880361D01*
X137673423Y-91922973D01*
X137715983Y-91937922D01*
X137762329Y-91951165D01*
X137787986Y-91952407D01*
X137798877Y-91942572D01*
X137799048Y-91942072D01*
X137794090Y-91914476D01*
X137771482Y-91880732D01*
X137743770Y-91845299D01*
X137724320Y-91810078D01*
X137712972Y-91792858D01*
X137677042Y-91768626D01*
X137613374Y-91742013D01*
X137513819Y-91705778D01*
X137570636Y-91549675D01*
X137668431Y-91584551D01*
X137704154Y-91596681D01*
X137752493Y-91608041D01*
X137792192Y-91606554D01*
X137837087Y-91592902D01*
X137847483Y-91589122D01*
X137893742Y-91577579D01*
X137937601Y-91580383D01*
X137994984Y-91598055D01*
X138007632Y-91602750D01*
X138058192Y-91625853D01*
X138091221Y-91653524D01*
X138119252Y-91695602D01*
X138156485Y-91761469D01*
X139175725Y-92133879D01*
X139227862Y-92104233D01*
X139256284Y-92089061D01*
X139362130Y-92050472D01*
X139461780Y-92042913D01*
X139528104Y-92048633D01*
X139590165Y-91878122D01*
X139744710Y-91934372D01*
X139717589Y-92023453D01*
X139716367Y-92027467D01*
X139702531Y-92077191D01*
X139701113Y-92107531D01*
X139714524Y-92130103D01*
X139745169Y-92156526D01*
X139768299Y-92179352D01*
X139807972Y-92233481D01*
X139841276Y-92295854D01*
X139882682Y-92391190D01*
X140756974Y-92709407D01*
X140836495Y-92682356D01*
X140916017Y-92655307D01*
X140957679Y-92540842D01*
X140960878Y-92532136D01*
X140981811Y-92479048D01*
X140998745Y-92442380D01*
X141008269Y-92429627D01*
X141015216Y-92435287D01*
X141039004Y-92460560D01*
X141071577Y-92498545D01*
X141096407Y-92529706D01*
X141113608Y-92561354D01*
X141113551Y-92592758D01*
X141099039Y-92638169D01*
X141091212Y-92660705D01*
X141082827Y-92701594D01*
X141090366Y-92737349D01*
X141115651Y-92783961D01*
X141159181Y-92855798D01*
X141757422Y-93072822D01*
X142355664Y-93289846D01*
X142426524Y-93263321D01*
X142436920Y-93259540D01*
X142483180Y-93247998D01*
X142527039Y-93250802D01*
X142584421Y-93268473D01*
X142597069Y-93273168D01*
X142647628Y-93296271D01*
X142680657Y-93323942D01*
X142708689Y-93366020D01*
X142728673Y-93398106D01*
X142754585Y-93425411D01*
X142791988Y-93447168D01*
X142851060Y-93470874D01*
X142956199Y-93509859D01*
X142899382Y-93665963D01*
X142792021Y-93626887D01*
X142729373Y-93606484D01*
X142683844Y-93598713D01*
X142655475Y-93604872D01*
X142621019Y-93618450D01*
X142573932Y-93628681D01*
X142548119Y-93633191D01*
X142515458Y-93647679D01*
X142514947Y-93659082D01*
X142514569Y-93667545D01*
X142544996Y-93691534D01*
X142606287Y-93718389D01*
X142707754Y-93755320D01*
X142412305Y-94567058D01*
X142355488Y-94723161D01*
X142246216Y-94683389D01*
G37*
G36*
X144836788Y-94932525D02*
G01*
X144800209Y-95049101D01*
X144790801Y-95074008D01*
X144729123Y-95200381D01*
X144654466Y-95296682D01*
X144565728Y-95363786D01*
X144461807Y-95402571D01*
X144341601Y-95413912D01*
X144293506Y-95410739D01*
X144179070Y-95385217D01*
X144071729Y-95337804D01*
X143979758Y-95272729D01*
X143911434Y-95194217D01*
X143901690Y-95177807D01*
X143874341Y-95117841D01*
X143853743Y-95052931D01*
X143843013Y-94994410D01*
X143845269Y-94953614D01*
X143851008Y-94948810D01*
X143881161Y-94945518D01*
X143926954Y-94951098D01*
X143965012Y-94959872D01*
X143994625Y-94973974D01*
X144015217Y-95000462D01*
X144037301Y-95048631D01*
X144067020Y-95104506D01*
X144130018Y-95175109D01*
X144206631Y-95220808D01*
X144291458Y-95241412D01*
X144379101Y-95236726D01*
X144464160Y-95206558D01*
X144541236Y-95150712D01*
X144604929Y-95068995D01*
X144632553Y-95021596D01*
X143899649Y-94754841D01*
X143921198Y-94696390D01*
X143937751Y-94660004D01*
X144124795Y-94660004D01*
X144399668Y-94760049D01*
X144479564Y-94789004D01*
X144557164Y-94816456D01*
X144611524Y-94834268D01*
X144647070Y-94843544D01*
X144668225Y-94845387D01*
X144679415Y-94840898D01*
X144685064Y-94831183D01*
X144689530Y-94792031D01*
X144676973Y-94731010D01*
X144648081Y-94666287D01*
X144606732Y-94608870D01*
X144540812Y-94554296D01*
X144457633Y-94517734D01*
X144370368Y-94506277D01*
X144285672Y-94519750D01*
X144210205Y-94557978D01*
X144150621Y-94620789D01*
X144124795Y-94660004D01*
X143937751Y-94660004D01*
X143962822Y-94604895D01*
X144036576Y-94500032D01*
X144126070Y-94420720D01*
X144227663Y-94368145D01*
X144337712Y-94343492D01*
X144452575Y-94347943D01*
X144568613Y-94382683D01*
X144682184Y-94448898D01*
X144719624Y-94480385D01*
X144765586Y-94536504D01*
X144807207Y-94613731D01*
X144825946Y-94658219D01*
X144849524Y-94745315D01*
X144853182Y-94834007D01*
X144844025Y-94889039D01*
X144836788Y-94932525D01*
G37*
G36*
X146112355Y-94552536D02*
G01*
X145623729Y-95895024D01*
X145452016Y-95832526D01*
X145572916Y-95500355D01*
X145612887Y-95389713D01*
X145642507Y-95305168D01*
X145663117Y-95241873D01*
X145676059Y-95194982D01*
X145682676Y-95159654D01*
X145684310Y-95131042D01*
X145682302Y-95104301D01*
X145661261Y-95037213D01*
X145613468Y-94970963D01*
X145547554Y-94918999D01*
X145471388Y-94887364D01*
X145392847Y-94882101D01*
X145358770Y-94888924D01*
X145328454Y-94902513D01*
X145300711Y-94926300D01*
X145273379Y-94963847D01*
X145244294Y-95018710D01*
X145211291Y-95094448D01*
X145172205Y-95194621D01*
X145124875Y-95322786D01*
X144999316Y-95667757D01*
X144827603Y-95605258D01*
X144945588Y-95281377D01*
X144950317Y-95268431D01*
X144989113Y-95164748D01*
X145027259Y-95066811D01*
X145062161Y-94981019D01*
X145091225Y-94913771D01*
X145111853Y-94871465D01*
X145159622Y-94801807D01*
X145231053Y-94740082D01*
X145314967Y-94708772D01*
X145412306Y-94707567D01*
X145524012Y-94736159D01*
X145556116Y-94748292D01*
X145611336Y-94774000D01*
X145652176Y-94803818D01*
X145691092Y-94845930D01*
X145712823Y-94874054D01*
X145741210Y-94917703D01*
X145754810Y-94948673D01*
X145757447Y-94953212D01*
X145768005Y-94941139D01*
X145786617Y-94901858D01*
X145813952Y-94833883D01*
X145850680Y-94735728D01*
X145940641Y-94490038D01*
X146112355Y-94552536D01*
G37*
G36*
X143942462Y-93957221D02*
G01*
X143744601Y-94500840D01*
X143516335Y-95127996D01*
X143212702Y-95017482D01*
X143115688Y-94981228D01*
X143020658Y-94943892D01*
X142937456Y-94909390D01*
X142872596Y-94880425D01*
X142832592Y-94859701D01*
X142804616Y-94841376D01*
X142716376Y-94763358D01*
X142658726Y-94672707D01*
X142631135Y-94568326D01*
X142631712Y-94532768D01*
X142818295Y-94532768D01*
X142836467Y-94610176D01*
X142882876Y-94680876D01*
X142904759Y-94702749D01*
X142931359Y-94723973D01*
X142965192Y-94743809D01*
X143012308Y-94765296D01*
X143078759Y-94791471D01*
X143170591Y-94825373D01*
X143401438Y-94909394D01*
X143572887Y-94438341D01*
X143325105Y-94354128D01*
X143251808Y-94329483D01*
X143173506Y-94304420D01*
X143116320Y-94288482D01*
X143074414Y-94280314D01*
X143041949Y-94278569D01*
X143013089Y-94281893D01*
X142984593Y-94288957D01*
X142911507Y-94326748D01*
X142857983Y-94384410D01*
X142826190Y-94455298D01*
X142818295Y-94532768D01*
X142631712Y-94532768D01*
X142633069Y-94449124D01*
X142644317Y-94395181D01*
X142687446Y-94300451D01*
X142754641Y-94223077D01*
X142841098Y-94167868D01*
X142942013Y-94139639D01*
X143015498Y-94130578D01*
X142976598Y-94077084D01*
X142947782Y-94026326D01*
X142929710Y-93954865D01*
X143091946Y-93954865D01*
X143107441Y-94024004D01*
X143153729Y-94083395D01*
X143158137Y-94087231D01*
X143194671Y-94113015D01*
X143246508Y-94140056D01*
X143319196Y-94170975D01*
X143418283Y-94208393D01*
X143628706Y-94284981D01*
X143777472Y-93876249D01*
X143545015Y-93798501D01*
X143458998Y-93770751D01*
X143369263Y-93744781D01*
X143303416Y-93729632D01*
X143264887Y-93726188D01*
X143204176Y-93746984D01*
X143148682Y-93795573D01*
X143109638Y-93865423D01*
X143106763Y-93873606D01*
X143091946Y-93954865D01*
X142929710Y-93954865D01*
X142925699Y-93939003D01*
X142929166Y-93847373D01*
X142955830Y-93758211D01*
X143003337Y-93678296D01*
X143069335Y-93614405D01*
X143151472Y-93573316D01*
X143154409Y-93572414D01*
X143180184Y-93564765D01*
X143204841Y-93558841D01*
X143230537Y-93555284D01*
X143259425Y-93554736D01*
X143293663Y-93557840D01*
X143335408Y-93565238D01*
X143386814Y-93577572D01*
X143450038Y-93595484D01*
X143527237Y-93619617D01*
X143620565Y-93650611D01*
X143732180Y-93689110D01*
X143864237Y-93735756D01*
X144018893Y-93791190D01*
X144198303Y-93856055D01*
X144404625Y-93930993D01*
X144640012Y-94016647D01*
X145878200Y-94467311D01*
X145822425Y-94620551D01*
X145815701Y-94639025D01*
X143942462Y-93957221D01*
G37*
G36*
X141389134Y-93240026D02*
G01*
X141273853Y-93573731D01*
X141267999Y-93590688D01*
X141230852Y-93699220D01*
X141203505Y-93781876D01*
X141184726Y-93843421D01*
X141173293Y-93888617D01*
X141167976Y-93922229D01*
X141167547Y-93949016D01*
X141170781Y-93973743D01*
X141194766Y-94042727D01*
X141244474Y-94110374D01*
X141311043Y-94160627D01*
X141387346Y-94188308D01*
X141466257Y-94188247D01*
X141480924Y-94185155D01*
X141512171Y-94176224D01*
X141538686Y-94162359D01*
X141562795Y-94139813D01*
X141586822Y-94104840D01*
X141613096Y-94053695D01*
X141643943Y-93982634D01*
X141681687Y-93887912D01*
X141728655Y-93765783D01*
X141863515Y-93412686D01*
X142018154Y-93468970D01*
X141870038Y-93861437D01*
X141845571Y-93926119D01*
X141803761Y-94035394D01*
X141770620Y-94119445D01*
X141744342Y-94182281D01*
X141723119Y-94227910D01*
X141705145Y-94260341D01*
X141688617Y-94283585D01*
X141671725Y-94301649D01*
X141617825Y-94338765D01*
X141535095Y-94366981D01*
X141443820Y-94373738D01*
X141392547Y-94366645D01*
X141297984Y-94332787D01*
X141212601Y-94277024D01*
X141144310Y-94205143D01*
X141101021Y-94122933D01*
X141078686Y-94055143D01*
X141048685Y-94137034D01*
X141018682Y-94218924D01*
X140878190Y-94167789D01*
X141236136Y-93184339D01*
X141389134Y-93240026D01*
G37*
G36*
X138998525Y-92807571D02*
G01*
X138961946Y-92924148D01*
X138952538Y-92949054D01*
X138890860Y-93075427D01*
X138816203Y-93171729D01*
X138727465Y-93238832D01*
X138623544Y-93277617D01*
X138503338Y-93288958D01*
X138455243Y-93285785D01*
X138340807Y-93260263D01*
X138233467Y-93212851D01*
X138141495Y-93147775D01*
X138073170Y-93069263D01*
X138063426Y-93052853D01*
X138036077Y-92992887D01*
X138015480Y-92927977D01*
X138004750Y-92869456D01*
X138007007Y-92828661D01*
X138012744Y-92823856D01*
X138042899Y-92820564D01*
X138088691Y-92826144D01*
X138126749Y-92834918D01*
X138156363Y-92849020D01*
X138176953Y-92875508D01*
X138199038Y-92923677D01*
X138228757Y-92979553D01*
X138291755Y-93050155D01*
X138368368Y-93095854D01*
X138453195Y-93116458D01*
X138540838Y-93111772D01*
X138625897Y-93081604D01*
X138702973Y-93025758D01*
X138766666Y-92944041D01*
X138794290Y-92896642D01*
X138061385Y-92629886D01*
X138082936Y-92571436D01*
X138099488Y-92535050D01*
X138286531Y-92535050D01*
X138561405Y-92635095D01*
X138641301Y-92664050D01*
X138718901Y-92691502D01*
X138773262Y-92709315D01*
X138808807Y-92718590D01*
X138829962Y-92720433D01*
X138841151Y-92715944D01*
X138846801Y-92706229D01*
X138851267Y-92667077D01*
X138838710Y-92606056D01*
X138809817Y-92541333D01*
X138768468Y-92483916D01*
X138702548Y-92429342D01*
X138619370Y-92392780D01*
X138532105Y-92381323D01*
X138447409Y-92394796D01*
X138371942Y-92433024D01*
X138312358Y-92495835D01*
X138286531Y-92535050D01*
X138099488Y-92535050D01*
X138124558Y-92479941D01*
X138198314Y-92375078D01*
X138287808Y-92295767D01*
X138389399Y-92243191D01*
X138499448Y-92218538D01*
X138614312Y-92222989D01*
X138730350Y-92257729D01*
X138843921Y-92323944D01*
X138881361Y-92355431D01*
X138927323Y-92411550D01*
X138968945Y-92488777D01*
X138987682Y-92533265D01*
X139011261Y-92620361D01*
X139014919Y-92709053D01*
X139005761Y-92764085D01*
X138998525Y-92807571D01*
G37*
G36*
X140502451Y-92917299D02*
G01*
X140444714Y-93075931D01*
X140167077Y-92969028D01*
X140123235Y-92952273D01*
X140022196Y-92914997D01*
X139949832Y-92890611D01*
X139906713Y-92879301D01*
X139893409Y-92881248D01*
X139893737Y-92882472D01*
X139902456Y-92906952D01*
X139921541Y-92957561D01*
X139949406Y-93030188D01*
X139984467Y-93120721D01*
X140025140Y-93225050D01*
X140069842Y-93339064D01*
X140072009Y-93344575D01*
X140121789Y-93471495D01*
X140160519Y-93571569D01*
X140189325Y-93648693D01*
X140209333Y-93706766D01*
X140221670Y-93749685D01*
X140227461Y-93781348D01*
X140227831Y-93805652D01*
X140223909Y-93826496D01*
X140216820Y-93847776D01*
X140191335Y-93917795D01*
X139332766Y-93605301D01*
X139390576Y-93446470D01*
X140037457Y-93693844D01*
X139974777Y-93538444D01*
X139951885Y-93481089D01*
X139917572Y-93394038D01*
X139877553Y-93291704D01*
X139835103Y-93182467D01*
X139793495Y-93074700D01*
X139784019Y-93050045D01*
X139745916Y-92949868D01*
X139718521Y-92874622D01*
X139700584Y-92819374D01*
X139690856Y-92779198D01*
X139688085Y-92749161D01*
X139691021Y-92724333D01*
X139698413Y-92699786D01*
X139721934Y-92633214D01*
X140502451Y-92917299D01*
G37*
D12*
%TO.C,R7*%
X139683258Y-88758500D02*
X139208742Y-88758500D01*
X139683258Y-89803500D02*
X139208742Y-89803500D01*
%TO.C,R4*%
X139683258Y-82183500D02*
X139208742Y-82183500D01*
X139683258Y-81138500D02*
X139208742Y-81138500D01*
%TO.C,R6*%
X139683258Y-83961500D02*
X139208742Y-83961500D01*
X139683258Y-82916500D02*
X139208742Y-82916500D01*
%TO.C,R10*%
X145304742Y-83986900D02*
X145779258Y-83986900D01*
X145304742Y-82941900D02*
X145779258Y-82941900D01*
%TO.C,R3*%
X145400500Y-90216258D02*
X145400500Y-89741742D01*
X146445500Y-90216258D02*
X146445500Y-89741742D01*
%TO.C,R1*%
X145304742Y-81040500D02*
X145779258Y-81040500D01*
X145304742Y-79995500D02*
X145779258Y-79995500D01*
%TO.C,U1*%
X140630000Y-85225000D02*
X140630000Y-84750000D01*
X143850000Y-84750000D02*
X143375000Y-84750000D01*
X140630000Y-84750000D02*
X141105000Y-84750000D01*
X140630000Y-87970000D02*
X141105000Y-87970000D01*
X143850000Y-87495000D02*
X143850000Y-87970000D01*
X140630000Y-87495000D02*
X140630000Y-87970000D01*
X143850000Y-85225000D02*
X143850000Y-84750000D01*
%TO.C,R8*%
X145779258Y-81468700D02*
X145304742Y-81468700D01*
X145779258Y-82513700D02*
X145304742Y-82513700D01*
%TO.C,Q1*%
X143347000Y-77851000D02*
X143347000Y-78501000D01*
X146467000Y-77851000D02*
X146467000Y-78501000D01*
X143347000Y-77851000D02*
X143347000Y-76176000D01*
X146467000Y-77851000D02*
X146467000Y-77201000D01*
%TO.C,RV1*%
X139462000Y-76378000D02*
X142362000Y-76378000D01*
X142362000Y-79578000D02*
X142362000Y-78978000D01*
X139462000Y-79578000D02*
X142362000Y-79578000D01*
X137862000Y-79778000D02*
X137862000Y-79078000D01*
X138562000Y-79778000D02*
X137862000Y-79778000D01*
X138362000Y-78178000D02*
X138362000Y-77778000D01*
X142362000Y-76378000D02*
X142362000Y-76978000D01*
%TO.C,Q2*%
X143747000Y-78581000D02*
X144407000Y-78581000D01*
X145407000Y-78581000D02*
X146067000Y-78581000D01*
X143747000Y-78581000D02*
X143747000Y-76551000D01*
X146067000Y-77171000D02*
X146067000Y-78581000D01*
%TO.C,C1*%
X142634580Y-81659000D02*
X142353420Y-81659000D01*
X142634580Y-82679000D02*
X142353420Y-82679000D01*
%TO.C,R5*%
X142256742Y-81167500D02*
X142731258Y-81167500D01*
X142256742Y-80122500D02*
X142731258Y-80122500D01*
%TO.C,R2*%
X144921500Y-89741742D02*
X144921500Y-90216258D01*
X143876500Y-89741742D02*
X143876500Y-90216258D01*
%TO.C,C2*%
X139321000Y-86219420D02*
X139321000Y-86500580D01*
X138301000Y-86219420D02*
X138301000Y-86500580D01*
%TO.C,R9*%
X146445500Y-86757742D02*
X146445500Y-87232258D01*
X145400500Y-86757742D02*
X145400500Y-87232258D01*
%TD*%
M02*
